<?xml version="1.0" encoding="utf-8"?>
<!-- Generator: Adobe Illustrator 17.0.0, SVG Export Plug-In . SVG Version: 6.00 Build 0)  -->
<!DOCTYPE svg PUBLIC "-//W3C//DTD SVG 1.1//EN" "http://www.w3.org/Graphics/SVG/1.1/DTD/svg11.dtd">
<svg version="1.1" id="Layer_1" xmlns="http://www.w3.org/2000/svg" xmlns:xlink="http://www.w3.org/1999/xlink" x="0px" y="0px"
	 width="670px" height="254px" viewBox="63.5 162.5 670 254" enable-background="new 63.5 162.5 670 254" xml:space="preserve">
<g>
	<g>
		
			<linearGradient id="SVGID_1_" gradientUnits="userSpaceOnUse" x1="225.5145" y1="659.763" x2="225.5145" y2="511.0818" gradientTransform="matrix(1 0 0 -1 342.34 832.04)">
			<stop  offset="0" style="stop-color:#51AFE2"/>
			<stop  offset="0.0169" style="stop-color:#50A6DD"/>
			<stop  offset="0.0671" style="stop-color:#4D91CE"/>
			<stop  offset="0.1183" style="stop-color:#4C81C2"/>
			<stop  offset="0.1704" style="stop-color:#4A77BB"/>
			<stop  offset="0.2239" style="stop-color:#4971B7"/>
			<stop  offset="0.2809" style="stop-color:#496FB6"/>
			<stop  offset="0.6685" style="stop-color:#494EA1"/>
			<stop  offset="0.8876" style="stop-color:#34409A"/>
			<stop  offset="1" style="stop-color:#1D1752"/>
		</linearGradient>
		<path fill="url(#SVGID_1_)" d="M728.154,307.79l-66.767-90.37l-16.528,15.684l-42.975-60.827l-19.421,29.457l-16.528-18.362
			l-36.158,50.385h-43.876l-13.12,33.551l-12.808-33.551h-52.418v20.805h6.873v45.297h-6.684v20.804h33.674v-20.804h-6.873v-47.92
			l25.991,68.725h12.996l26.24-69.349v48.545h-6.934v20.804h45.358v-13.079c0.129,0.282,0.245,0.567,0.395,0.842
			c1.068,1.958,2.579,3.273,4.91,3.483c1.281,0.116,2.546,0.012,3.82-0.043c2.703-0.115,4.642-1.37,5.88-3.766
			c1.115-2.159,1.623-4.468,1.73-6.873c0.024-0.53,0.238-0.681,0.717-0.702c2.455-0.106,4.91-0.216,7.362-0.357
			c0.429-0.025,0.699,0.077,0.943,0.43c0.47,0.681,1.134,1.049,1.977,1.042c1.064-0.008,2.128-0.003,3.19-0.045
			c1.065-0.043,1.914-0.489,2.382-1.495c0.135-0.291,0.309-0.431,0.639-0.441c1.322-0.043,2.645-0.094,3.966-0.173
			c0.417-0.025,0.583,0.086,0.626,0.523c0.103,1.036,0.371,2.043,0.724,3.02c0.933,2.582,2.41,4.512,5.493,4.439
			c0.411-0.01,0.406,0.289,0.475,0.567c0.597,2.414,1.405,4.749,2.691,6.892c2.043,3.405,4.913,5.54,8.975,5.885
			c3.122,0.265,6.236,0.153,9.336-0.22c2.034-0.245,3.958-0.863,5.633-2.12c2.629-1.973,4.219-4.671,5.358-7.674
			c0.755-1.99,1.25-4.051,1.475-6.174c0.024-0.228-0.084-0.662,0.417-0.534c0.796,0.203,1.6,0.083,2.399,0.078
			c2.132-0.013,3.333-0.856,4.061-2.851c0.097-0.266,0.195-0.372,0.478-0.384c2.101-0.09,4.202-0.181,6.301-0.307
			c0.491-0.029,0.581,0.194,0.655,0.599c0.37,2.032,1.035,3.967,2.038,5.775c1.78,3.206,4.296,5.482,7.996,6.216
			c2.294,0.454,4.608,0.397,6.92,0.176c3.495-0.333,6.514-1.659,8.605-4.568c4.327-6.022,4.74-12.403,1.479-19.025
			c-0.96-1.949-2.342-3.594-4.142-4.991c0.941-0.476,1.807-0.915,2.698-1.366c-0.184-0.184-0.355-0.116-0.503-0.111
			c-4.25,0.154-8.5,0.313-12.75,0.474c-0.708,0.027-1.417,0.102-2.124,0.083c-0.325-0.008-0.559,0.329-0.838,0.209
			c-0.758-0.327-1.414-0.15-2.058,0.281c-0.192,0.128-0.35,0.359-0.674,0.332c0.2-0.222,0.364-0.404,0.559-0.621
			c-1.797-0.383-2.641,1.26-4.099,1.778c0.666-0.602,1.244-1.125,1.84-1.665c-0.94-0.219-1.623,0.123-2.275,0.656
			c-0.697,0.57-1.441,1.081-2.164,1.618c-0.03-0.039-0.061-0.078-0.091-0.117c0.769-0.683,1.538-1.365,2.37-2.104
			c-1.138-0.167-1.983,0.084-2.791,0.698c-1.164,0.885-2.404,1.669-3.617,2.489c-0.087,0.059-0.179,0.249-0.348,0.047
			c1.198-1.017,2.391-2.029,3.71-3.149c-0.51,0-0.834,0.01-1.157-0.002c-0.859-0.032-1.561,0.199-2.201,0.858
			c-1.168,1.202-2.429,2.315-3.671,3.443c-0.714,0.648-1.344,1.398-2.254,1.84c1.463-1.961,2.927-3.922,4.311-5.778
			c-1.559,0-3.09-0.036-4.619,0.008c-2.55,0.074-5.099,0.2-7.649,0.299c-0.225,0.009-0.42,0.043-0.554-0.277
			c-1.233-2.936-2.379-5.903-3.38-8.927c-0.748-2.26-1.284-4.586-2.143-6.81c-0.575-1.49-1.673-2.389-3.238-2.645
			c-0.837-0.137-1.7-0.107-2.545,0.016c-2.733,0.398-5.411,1.066-8.101,1.676c-2.125,0.482-3.834,1.546-4.803,3.599
			c-0.749,1.587-1.049,3.275-1.136,5.004c-0.107,2.109,0.107,4.199,0.52,6.268c0.094,0.469,0.053,0.804-0.387,1.151
			c-0.795,0.628-1.412,1.451-1.965,2.3c-0.18,0.277-0.361,0.376-0.666,0.41c-1.313,0.146-2.623,0.32-3.935,0.473
			c-3.422,0.4-6.845,0.795-10.268,1.191c-2.198,0.255-4.396,0.509-6.593,0.763c0.497,0.051,0.991,0.078,1.482,0.047
			c2.617-0.165,5.232-0.352,7.848-0.516c3.513-0.221,7.027-0.431,10.541-0.633c0.171-0.01,0.491-0.222,0.512,0.115
			c0.017,0.282-0.316,0.201-0.511,0.218c-3.835,0.329-7.671,0.657-11.507,0.978c-6.331,0.529-12.663,1.043-18.992,1.594
			c-0.635,0.055-0.957-0.178-1.227-0.779c10.984-1.313,21.927-2.621,32.869-3.93c-2.275,0.026-4.537,0.162-6.8,0.293
			c-3.019,0.176-6.038,0.347-9.057,0.521c-3.537,0.203-7.074,0.409-10.612,0.606c-0.254,0.014-0.559,0.118-0.728-0.198
			c0,0,0.001,0,0.001,0.001c-0.059-0.307,0.134-0.333,0.371-0.364c2.85-0.371,5.699-0.752,8.549-1.129
			c2.981-0.395,5.963-0.788,8.944-1.182c-0.31-0.067-0.614-0.06-0.916-0.033c-2.938,0.261-5.876,0.52-8.813,0.793
			c-0.384,0.036-0.688-0.038-0.902-0.373c0.226,0.356,0.028,0.456-0.291,0.484c-2.252,0.195-4.503,0.392-6.755,0.583
			c-0.228,0.019-0.494,0.081-0.516-0.29c-0.021-0.355,0.267-0.272,0.445-0.301c2.204-0.354,4.411-0.688,6.613-1.053
			c0.291-0.048,0.344,0.189,0.518,0.274c0.191-0.395-0.147-0.593-0.313-0.855c0.006,0.003,0.008,0.007,0.013,0.01
			c-0.246-0.932-0.472-1.871-0.748-2.795c-0.152-0.508-0.003-0.701,0.509-0.777c3.173-0.469,6.346-0.936,9.513-1.447
			c3.813-0.615,7.674-0.992,11.381-2.156c0.469-0.147,0.542-0.057,0.612,0.38c0.26,1.622,0.564,3.238,0.852,4.855
			c0.092-0.124,0.106-0.241,0.09-0.354c-0.301-2.147-0.626-4.291-0.902-6.441c-0.138-1.075-0.368-2.158-0.27-3.239
			c0.252-2.768,1.703-4.508,4.446-5.264c4.357-1.202,8.778-1.985,13.279-2.325c1.36-0.103,2.575,0.181,3.369,1.468
			c0.553,0.897,0.966,1.835,1.112,2.878c0.056,0.403,0.176,0.566,0.635,0.458c0.618-0.145,1.262-0.169,1.89-0.278
			c3.841-0.665,7.692-1.191,11.6-1.291c7.289-0.187,14.55,0.291,21.806,0.859c5.534,0.433,11.068,0.857,16.611,1.157
			c0.399,0.022,0.457-0.114,0.512-0.45c0.278-1.721,0.239-3.427-0.104-5.135c-0.093-0.464-0.236-0.912-0.389-1.357l22.308,30.327
			l-30.634-58.075c8.359,9.991,37.249,44.484,36.94,43.626c-0.361-1.003-22.751-40.623-22.751-40.623L728.154,307.79z
			 M637.636,310.189c-0.365-0.089-0.559-0.412-0.832-0.621c-0.443-0.34-0.011-0.642,0.112-0.911
			c0.185-0.407,0.388-0.003,0.531,0.086C638.073,309.129,638.067,309.158,637.636,310.189z M639.467,311.261
			c-0.37-0.029-0.978-0.143-0.966-0.692c0.007-0.315-0.043-0.939,0.445-0.937c0.418,0.002,1.048,0.165,0.696,1.069
			C639.583,310.778,639.935,311.297,639.467,311.261z M641.496,311.955c-0.75,0.028-1.036-0.279-0.979-0.887
			c0.091-0.964,0.187-1.064,0.839-0.874c0.288,0.084,0.288,0.084,0.362,1.066C641.538,311.432,642.144,311.931,641.496,311.955z
			 M653.322,308.223c-0.193,0.15-0.327,0.383-0.634,0.448c0.06-0.25,0.123-0.469,0.165-0.693c0.04-0.209,0.15-0.336,0.359-0.375
			c0.103-0.019,0.19,0.02,0.226,0.115C653.51,307.908,653.497,308.087,653.322,308.223z M654.144,305.297
			c-0.01-0.193-0.023-0.373,0.195-0.47c0.121-0.054,0.225-0.064,0.287,0.073c0.084,0.184,0.256,0.366,0.108,0.58
			c-0.13,0.189-0.293,0.354-0.588,0.703C654.147,305.746,654.156,305.521,654.144,305.297z M653.605,292.17
			c0.67-0.102,0.965,0.36,1.173,0.707c0.249,0.417-0.107,0.834-0.375,1.228C654.632,293.279,653.962,292.836,653.605,292.17z
			 M657.432,296.438c0.05,0.109,0.192,0.246,0.026,0.367c-0.179,0.13-0.289-0.005-0.411-0.127c-0.507-0.508-0.502-0.792,0.11-1.702
			C657.064,295.56,657.231,296.002,657.432,296.438z M656.278,300.012c0.654,0.689,0.112,1.023-0.119,1.464
			C655.538,300.899,656.174,300.559,656.278,300.012z M656.216,297.001c0.611,0.452,0.614,0.537,0.043,1.317
			C655.629,297.897,655.994,297.449,656.216,297.001z M657.104,301.211c0.03,0.575,0.044,0.936,0.069,1.296
			c0.011,0.157-0.028,0.287-0.177,0.344c-0.229,0.088-0.275-0.123-0.346-0.253C656.349,302.04,656.87,301.788,657.104,301.211z
			 M657.044,299.622c-0.502-0.656,0.184-1.051,0.359-1.554c-0.153,0.492-0.031,0.934,0.135,1.376
			c0.058,0.155,0.098,0.347-0.083,0.439C657.203,300.013,657.151,299.762,657.044,299.622z M656.963,293.786
			c-0.156,0.155-0.295,0.007-0.424-0.097c-0.647-0.524-0.671-0.703-0.151-1.628c-0.051,0.531,0.202,0.949,0.476,1.364
			C656.933,293.529,657.094,293.656,656.963,293.786z M655.945,295.195c-0.612-0.365-0.602-0.804-0.246-1.3
			C656.374,294.367,656.374,294.367,655.945,295.195z M655.088,300.512c0.292-0.56,0.133-1.077-0.081-1.592
			c-0.049-0.119-0.174-0.263-0.002-0.367c0.152-0.092,0.318-0.074,0.436,0.083c0.248,0.329,0.588,0.639,0.2,1.092
			C655.439,299.964,655.406,300.318,655.088,300.512z M655.504,302.563c-0.153,0.261-0.335,0.504-0.551,0.824
			c-0.03-0.406-0.071-0.725-0.071-1.045c0-0.186-0.253-0.394,0.031-0.563c0.129-0.076,0.279-0.128,0.363,0.033
			C655.399,302.045,655.692,302.245,655.504,302.563z M655.015,297.227c0.16-0.591-0.054-1.075-0.352-1.543
			c-0.07-0.111-0.191-0.258-0.052-0.374c0.142-0.12,0.291-0.053,0.438,0.067C655.715,295.918,655.724,296.182,655.015,297.227z
			 M655.111,292.146c-0.48-0.276-0.844-0.596-0.438-1.193C655.451,291.322,655.5,291.45,655.111,292.146z M654.495,307.073
			c-0.071,0.079-0.149,0.101-0.227-0.002c-0.069-0.092-0.046-0.179,0.019-0.252c0.24-0.269,0.436-0.587,0.855-0.824
			C655.154,306.617,654.745,306.792,654.495,307.073z M655.434,304.367c-0.108-0.1-0.173-0.249-0.097-0.376
			c0.165-0.276,0.362-0.532,0.587-0.858c0.468,0.645-0.132,0.881-0.33,1.242C655.583,304.398,655.466,304.397,655.434,304.367z
			 M655.822,305.021c0.174-0.214,0.342-0.435,0.613-0.782c-0.04,0.449-0.062,0.725-0.09,1c-0.017,0.164-0.036,0.331-0.244,0.376
			c-0.095,0.021-0.181,0.037-0.23-0.079C655.8,305.369,655.666,305.213,655.822,305.021z M655.815,307.6
			c0.118-0.829,0.664-1.22,1.196-1.619C656.72,306.554,656.587,307.25,655.815,307.6z M657.699,304.751
			c-0.099,0.224-0.357,0.398-0.575,0.283c-0.189-0.1-0.14-0.407-0.023-0.573c0.309-0.44,0.398-1.083,1.13-1.238
			C658.133,303.819,657.906,304.284,657.699,304.751z M658.585,302.015c-0.076,0.26-0.34,0.342-0.557,0.334
			c-0.306-0.011-0.206-0.339-0.213-0.493c-0.02-0.479,0.247-0.885,0.493-1.273c0.065-0.104,0.296-0.163,0.437-0.144
			c0.178,0.025,0.093,0.225,0.121,0.424C658.785,301.204,658.702,301.615,658.585,302.015z M659.083,298.156
			c-0.023,0.343-0.063,0.6-0.051,0.855c0.017,0.373-0.28,0.39-0.504,0.462c-0.307,0.099-0.304-0.174-0.39-0.36
			c-0.166-0.359-0.013-0.674,0.078-1.009c0.086-0.314,0.192-0.632,0.574-0.56C659.156,297.613,659.053,297.98,659.083,298.156z
			 M658.729,294.947c0.078,0.415,0.157,0.83,0.231,1.245c0.04,0.226-0.119,0.285-0.29,0.314c-0.177,0.03-0.397,0.142-0.508-0.077
			c-0.136-0.267-0.318-0.528-0.294-0.902c0.035-0.16,0.089-0.366,0.121-0.574c0.031-0.2,0.148-0.275,0.333-0.294
			C658.546,294.636,658.687,294.721,658.729,294.947z M657.619,291.85c0.15-0.012,0.221,0.098,0.271,0.243
			c0.131,0.378,0.274,0.751,0.399,1.131c0.049,0.149,0.129,0.335-0.106,0.412c-0.154,0.05-0.335,0.118-0.466-0.026
			c-0.404-0.444-0.566-0.963-0.443-1.563C657.314,291.855,657.45,291.855,657.619,291.85z M656.254,289.297
			c0.163-0.036,0.265,0.065,0.339,0.196c0.198,0.348,0.396,0.696,0.591,1.046c0.066,0.118,0.178,0.25-0.011,0.353
			c-0.135,0.073-0.272,0.044-0.399-0.043c-0.28-0.191-0.635-0.856-0.641-1.208C656.13,289.511,656.042,289.344,656.254,289.297z
			 M655.196,289.344c0.012,0.697,0.601,1.055,0.9,1.593C655.143,290.868,654.769,290.226,655.196,289.344z M655.686,288.397
			c-0.502-0.318-1.073-0.576-1.13-1.468C655.09,287.44,655.462,287.858,655.686,288.397z M653.55,286.87
			c0.157,0.716,0.806,0.981,1.174,1.513C653.694,288.21,653.243,287.655,653.55,286.87z M653.367,288.274
			c0.243,0.235,0.69,0.268,0.661,0.727c-0.009,0.147-0.043,0.428-0.237,0.304c-0.257-0.165-0.701-0.227-0.651-0.684
			C653.154,288.5,653.115,288.276,653.367,288.274z M652.287,289.301c1.288,0.145,1.668,0.829,0.976,1.903
			C653.419,290.253,652.711,289.916,652.287,289.301z M651.574,286.088c0.291,0.106,0.642,0.168,0.737,0.498
			c-0.008,0.184-0.091,0.33-0.198,0.282c-0.29-0.13-0.646-0.205-0.787-0.528C651.266,286.205,651.443,286.04,651.574,286.088z
			 M651.792,288.483c-0.058-0.949-0.786-1.153-1.233-1.633C651.643,286.805,652.254,287.479,651.792,288.483z M646.186,288.704
			c1.079-0.532,2.156-1.068,3.233-1.605c0.433-0.216,0.633,0.187,0.917,0.352c0.317,0.182,0.365,0.531,0.283,0.813
			c-0.108,0.374-0.459,0.327-0.758,0.224c-0.311-0.107-0.619-0.231-0.915-0.375c-0.228-0.111-0.381-0.124-0.513,0.138
			c-0.134,0.266-0.045,0.401,0.205,0.477c0.835,0.252,1.535,0.878,2.525,0.728c0.62-0.094,1.347,1.152,1.038,1.681
			c-0.151,0.259-0.448,0.329-0.741,0.189c-0.276-0.132-0.556-0.264-0.811-0.431c-0.285-0.187-0.408-0.056-0.544,0.184
			c-0.14,0.247-0.171,0.403,0.15,0.533c0.762,0.31,1.365,0.988,2.337,0.809c0.485-0.089,0.676,0.491,0.823,0.847
			c0.145,0.352,0.112,0.852-0.195,1.125c-0.402,0.357-0.806,0.047-1.135-0.223c-0.399-0.328-0.64-0.234-0.855,0.204
			c-0.109,0.223-0.085,0.356,0.129,0.448c0.697,0.299,1.191,1.149,2.149,0.759c0.263-0.107,0.312,0.223,0.436,0.376
			c0.43,0.531,0.254,1.121-0.005,1.599c-0.245,0.452-0.691,0.361-1.08,0.033c-0.276-0.232-0.519-0.503-0.887,0.015
			c-0.39,0.549,0.032,0.637,0.315,0.831c0.486,0.332,0.883,0.772,1.637,0.527c0.402-0.131,0.497,0.531,0.493,0.839
			c-0.005,0.375-0.175,0.805-0.409,1.106c-0.29,0.375-0.714,0.418-1.086,0.013c-0.498-0.542-0.702,0.006-0.964,0.277
			c-0.382,0.395,0.095,0.458,0.269,0.591c0.452,0.345,0.842,0.77,1.564,0.458c0.334-0.144,0.378,0.445,0.348,0.67
			c-0.07,0.514-0.343,0.989-0.749,1.316c-0.238,0.192-0.556,0.294-0.887-0.006c-0.353-0.32-1.044-0.074-1.21,0.381
			c-0.019,0.052-0.014,0.127,0.009,0.177c0.166,0.357,1.116,0.766,1.505,0.65c0.151-0.045,0.351-0.213,0.442-0.055
			c0.095,0.163,0.137,0.46,0.049,0.607c-0.298,0.497-0.581,1.032-1.174,1.263c-0.176,0.069-0.397,0.174-0.542,0.043
			c-0.7-0.635-1.073,0.056-1.615,0.356c0.557,0.448,0.993,0.863,1.711,0.536c0.361-0.165,0.287,0.181,0.231,0.368
			c-0.227,0.753-1.638,1.411-2.367,1.129c-0.57-0.221-0.929,0.308-1.49,0.399c0.589,0.659,1.239,0.637,1.966,0.353
			c-0.412,0.847-2.034,1.505-2.861,1.277c-0.602-0.165-1.198-0.096-1.612,0.457c-0.137,0.183-0.292,0.08-0.435,0.089
			c-0.971,0.063-1.931-0.072-2.963-0.166c0.648-0.277,0.334-0.778,0.366-1.189c0.024-0.312-0.232-0.68,0.384-0.778
			c0.567-0.09,0.688,0.173,0.77,0.599c0.04,0.208,0.107,0.411,0.142,0.62c0.04,0.241,0.097,0.43,0.403,0.287
			c0.193-0.09,0.499-0.06,0.372-0.445c-0.103-0.311-0.121-0.651-0.226-0.961c-0.107-0.316,0.007-0.43,0.276-0.591
			c0.489-0.293,0.717-0.149,0.854,0.345c0.05,0.181,0.12,0.358,0.2,0.528c0.081,0.172,0.1,0.465,0.424,0.279
			c0.247-0.142,0.526-0.247,0.282-0.633c-0.162-0.256-0.25-0.558-0.38-0.835c-0.099-0.212-0.103-0.38,0.082-0.571
			c0.367-0.38,0.674-0.569,0.954,0.078c0.083,0.191,0.227,0.359,0.356,0.527c0.111,0.144,0.23,0.358,0.438,0.125
			c0.151-0.17,0.506-0.274,0.254-0.616c-0.084-0.114-0.171-0.226-0.252-0.343c-0.63-0.906-0.629-0.906,0.177-1.759
			c0.18,0.187,0.359,0.373,0.537,0.56c0.162,0.169,0.323,0.339,0.485,0.51c0.582-0.628,0.562-0.612,0.057-1.251
			c-0.229-0.29-0.744-0.46-0.442-1.037c0.422-0.805,0.387-0.816,1.144-0.268c0.144,0.104,0.335,0.435,0.492,0.149
			c0.139-0.254,0.484-0.598,0.072-0.934c-0.146-0.119-0.3-0.23-0.45-0.344c-0.422-0.322-0.521-1.053-0.169-1.458
			c0.229-0.264,0.451,0.048,0.677,0.053c0.22,0.005,0.497,0.471,0.668-0.066c0.124-0.388,0.203-0.719-0.34-0.878
			c-0.421-0.123-0.932-0.172-0.796-0.9c0.105-0.565,0.196-0.918,0.879-0.697c0.23,0.074,0.542,0.109,0.514-0.33
			c-0.02-0.315,0.103-0.653-0.43-0.697c-0.381-0.032-0.844,0.077-0.932-0.642c-0.091-0.741,0.13-0.997,0.79-0.997
			c0.433,0,0.441-0.231,0.384-0.551c-0.058-0.323-0.113-0.623-0.565-0.463c-0.704,0.248-0.887-0.115-1.044-0.744
			c-0.141-0.565,0.173-0.636,0.514-0.803c0.263-0.129,0.654-0.125,0.467-0.667c-0.169-0.489-0.326-0.57-0.775-0.34
			c-0.193,0.099-0.506,0.526-0.679,0.111c-0.178-0.426-0.793-0.864-0.168-1.432c0.224-0.204,0.631-0.36,0.532-0.755
			c-0.065-0.26-0.23-0.577-0.445-0.695c-0.196-0.108-0.385,0.217-0.511,0.393c-0.331,0.46-0.511,0.339-0.792-0.073
			c-0.331-0.486-0.446-0.911-0.032-1.382c0.459-0.523,0.237-0.941-0.209-1.332c-0.205,0.091-0.24,0.321-0.37,0.475
			c-0.16,0.19-0.228,0.641-0.448,0.548c-0.29-0.122-0.505-0.473-0.692-0.764C645.833,288.885,646.03,288.781,646.186,288.704z
			 M643.946,289.839c0.128-0.181,0.317-0.146,0.495-0.012c0.514,0.387,0.943,0.859,1.339,1.359c2.816,3.553,3.768,7.53,2.389,11.88
			c-0.774,2.441-2.242,4.442-4.916,5.137c-1.52,0.395-2.984,0.137-4.321-0.706c1.208,0.518,2.456,0.7,3.733,0.474
			c1.486-0.263,2.629-1.112,3.545-2.285c2.055-2.632,2.38-5.635,1.792-8.789c-0.5-2.682-1.831-4.926-3.867-6.747
			C644.04,290.065,643.832,290.001,643.946,289.839z M642.701,300.335c0.149,0.272,0.327,0.517,0.556,0.728
			c0.503,0.463,1.013,0.344,1.525-0.016c0.067,0.81-0.045,1.653-0.76,1.936c-0.66,0.262-1.173-0.429-1.616-0.915
			c-0.335-0.368-0.624-0.782-0.78-1.255c-0.072-0.218-0.453-0.571-0.053-0.684C641.901,300.036,642.419,299.819,642.701,300.335z
			 M641.737,293.44c0.27-0.251,0.608-0.172,0.995,0c-0.342,0.215-0.619,0.389-0.942,0.593
			C641.667,293.84,641.561,293.603,641.737,293.44z M643.878,294.981c0.162,0.251,0.279,0.531,0.477,0.917
			c-1.108-0.307-1.378-0.153-1.971,1.009c-0.507-1.069-0.517-1.654-0.035-2.114C642.966,294.205,643.408,294.253,643.878,294.981z
			 M642.958,292.626c-1.507,0.049-1.507,0.049-1.647-0.902C641.979,291.885,642.51,292.149,642.958,292.626z M640.746,300.121
			c0.367-0.029,0.492,0.092,0.55,0.446c0.068,0.415,0.208,0.821,0.344,1.221c0.336,0.989,0.863,1.821,1.94,2.193
			c-1.202,0.515-2.335-0.419-3.8-3.085c0.191,2.274,1.853,3.859,4.151,3.88c-1.068,1.157-2.548,1.385-3.903,0.627
			c-1.452-0.812-2.323-2.112-2.897-3.622c-0.536-1.41-0.51-1.427,1.009-1.525C639.008,300.202,639.879,300.188,640.746,300.121z
			 M640.006,297.01c0.041,0.241-0.078,0.329-0.312,0.338c-0.265,0.01-0.333-0.133-0.288-0.347c0.078-0.372,0.093-0.77,0.393-1.14
			C639.877,296.288,639.945,296.649,640.006,297.01z M636.507,296.545c0.243-1.596,0.763-3.058,2.017-4.161
			c0.305-0.269,0.562-0.465,0.646,0.199c0.103,0.814,0.304,1.615,0.452,2.367c-0.106,0.758-0.335,1.435-0.323,2.149
			c0.005,0.272-0.212,0.307-0.395,0.274c-0.738-0.132-1.473-0.285-2.207-0.439C636.486,296.889,636.48,296.724,636.507,296.545z
			 M635.319,307.082c0.225-0.244,0.304,0.057,0.431,0.154c0.493,0.377,0.695,0.792,0.143,1.305c-0.31-0.225-0.485-0.566-0.721-0.854
			C634.95,307.415,635.172,307.242,635.319,307.082z M633.92,305.234c0.033-0.061,0.086-0.111,0.141-0.18
			c0.34,0.213,0.425,0.58,0.644,0.842c0.157,0.188,0.076,0.352-0.061,0.5c-0.039,0.042-0.118,0.081-0.171,0.072
			C634.302,306.442,633.835,305.391,633.92,305.234z M589.009,316.476c-0.926-0.52-1.049-0.899-0.597-1.869
			C589.217,315.083,589.415,315.7,589.009,316.476z M590.721,317.998c-1.072-0.605-1.072-0.605-0.773-1.931
			C590.948,316.34,590.97,316.395,590.721,317.998z M591.592,316.925c0.134-0.251,0.327-0.089,0.491-0.103
			c0.268-0.023,0.453,0.08,0.466,0.384c0.024,0.557,0.052,1.115,0.081,1.73C591.563,318.629,591.155,317.744,591.592,316.925z
			 M589.848,313.009c1.245,0.936,2.566,1.325,4.053,0.697c0.996-0.421,1.684-1.192,2.243-2.09c1.471-2.367,2.098-4.99,2.234-7.732
			c0.214-4.326-0.529-8.458-2.713-12.261c-0.318-0.554-0.662-1.091-1.098-1.562c-1.63-1.759-3.853-1.896-5.684-0.352
			c-0.153,0.129-0.299,0.267-0.542,0.486c1.266-2.037,4.357-2.995,6.443-0.625c1.555,1.766,2.474,3.9,3.101,6.141
			c1.287,4.604,1.428,9.212-0.169,13.784c-0.439,1.255-1.076,2.416-1.939,3.435C594.123,314.884,591.414,314.93,589.848,313.009z
			 M591.054,280.678c0.048,0.35,0.087,0.703,0.164,1.047c0.051,0.228,0,0.38-0.219,0.438c-0.325,0.086-0.268-0.211-0.287-0.355
			c-0.277-2.138-0.277-4.266,0.287-6.357C590.817,277.204,590.817,278.942,591.054,280.678z M593.21,282.877
			c1.424-0.148,2.852-0.4,4.289-0.112c0.208,0.042,0.412,0.101,0.618,0.151c0.2,0.049,0.25,0.229,0.258,0.383
			c0.015,0.275-0.225,0.166-0.363,0.186c-0.734,0.104-1.455-0.025-2.183-0.097c-0.491-0.048-1.066-0.292-1.52,0.321
			c1.735,0.088,3.345,0.645,5.04,0.483c0.574-0.055,1.064,0.35,1.554,0.621c0.272,0.151,0.156,0.459,0.113,0.714
			c-0.048,0.285-0.269,0.195-0.442,0.221c-0.851,0.128-1.623-0.209-2.419-0.409c-0.661-0.165-0.661-0.163-1.282,0.486
			c1.515,0.215,2.801,1.111,4.329,0.909c0.853-0.113,1.368,0.418,1.913,0.885c0.338,0.29-0.002,0.664-0.019,1
			c-0.017,0.324-0.301,0.215-0.491,0.255c-0.717,0.151-1.353-0.114-1.961-0.424c-0.661-0.337-1.198-0.31-1.646,0.475
			c1.403,0.353,2.553,1.401,4.15,1.233c1.231-0.13,1.995,1.073,1.479,2.192c-0.159,0.345-0.972,0.511-1.527,0.296
			c-0.241-0.093-0.467-0.226-0.701-0.339c-1.029-0.497-1.029-0.497-1.871,0.446c0.972,0.489,1.906,1.016,2.889,1.422
			c0.328,0.135,0.782-0.046,1.179-0.067c0.693-0.037,1.471,0.968,1.271,1.632c-0.417,1.378-1.031,1.63-2.284,0.936
			c-0.144-0.08-0.288-0.163-0.432-0.243c-0.628-0.349-1.259-0.122-1.557,0.536c-0.118,0.26,0.093,0.28,0.215,0.349
			c0.697,0.397,1.412,0.764,2.098,1.179c0.387,0.234,0.732-0.019,1.097-0.003c0.27,0.011,0.579-0.275,0.8-0.012
			c0.3,0.357,0.627,0.758,0.675,1.224c0.078,0.76-0.868,1.716-1.635,1.794c-0.456,0.046-0.78-0.216-1.082-0.449
			c-0.574-0.442-1.025-0.443-1.458,0.173c-0.118,0.167-0.323,0.272-0.549,0.455c0.848,0.494,1.596,0.93,2.343,1.366
			c0.379,0.221,0.728-0.012,1.082-0.083c0.663-0.134,1.358,0.514,1.256,1.193c-0.099,0.657-0.993,1.555-1.625,1.771
			c-0.427,0.146-0.72,0.007-1.048-0.195c-0.915-0.566-0.918-0.562-1.734,0.153c-0.141,0.123-0.283,0.245-0.484,0.42
			c0.723,0.413,1.412,0.814,2.107,1.202c0.384,0.214,0.724-0.099,1.091-0.121c0.262-0.015,0.578-0.281,0.765,0.039
			c0.183,0.313,0.467,0.729,0.256,1.055c-0.445,0.687-0.772,1.512-1.765,1.69c-0.461,0.083-0.836,0.055-1.177-0.228
			c-0.51-0.423-0.954-0.352-1.408,0.091c-0.214,0.209-0.478,0.367-0.784,0.597c0.691,0.358,1.302,0.703,1.937,0.993
			c0.447,0.205,0.86-0.133,1.294-0.175c0.203-0.02,0.515-0.269,0.612,0.062c0.085,0.29,0.358,0.632,0.078,0.934
			c-0.617,0.665-1.15,1.457-2.19,1.533c-0.287,0.021-0.576,0.08-0.82-0.106c-0.607-0.464-1.165-0.331-1.726,0.087
			c-0.205,0.152-0.444,0.259-0.764,0.442c1.035,0.469,1.92,1.133,3.084,0.659c0.21-0.086,0.53-0.271,0.676,0.046
			c0.154,0.333,0.101,0.648-0.269,0.911c-0.698,0.496-1.38,0.995-2.275,1.049c-0.21,0.013-0.469,0.086-0.625-0.007
			c-0.762-0.452-1.477-0.292-2.191,0.086c-0.384,0.203-0.613,0.109-0.712-0.321c-0.058-0.252-0.115-0.511-0.223-0.744
			c-0.314-0.674-0.204-1.225,0.491-1.692c0.282,0.569,0.55,1.112,0.833,1.683c0.521-0.389,0.616-0.789,0.272-1.311
			c-0.528-0.804-0.753-1.621,0.109-2.413c0.282,0.435,0.572,0.881,0.901,1.388c0.358-0.52,0.577-0.986,0.124-1.514
			c-0.675-0.787-0.662-1.603-0.053-2.528c0.296,0.321,0.586,0.635,0.924,1.002c0.305-0.656,0.549-1.253-0.14-1.755
			c-0.903-0.658-0.222-1.452-0.264-2.172c0.194-0.08,0.298,0.033,0.426,0.074c0.255,0.082,0.46,0.532,0.771,0.19
			c0.253-0.279,0.041-1.088-0.274-1.3c-0.249-0.168-0.672-0.224-0.702-0.537c-0.051-0.51-0.006-1.043,0.089-1.549
			c0.057-0.3,0.349-0.08,0.54-0.078c0.219,0.002,0.605,0.241,0.562-0.225c-0.035-0.38,0.332-0.94-0.365-1.118
			c-0.26-0.066-0.669,0.051-0.731-0.283c-0.097-0.526-0.096-1.078-0.069-1.615c0.008-0.165,0.301-0.187,0.48-0.236
			c0.492-0.136,0.759-0.907,0.457-1.312c-0.151-0.203-0.356-0.135-0.513-0.066c-0.541,0.237-0.718,0.026-0.724-0.505
			c-0.003-0.256-0.057-0.518-0.128-0.766c-0.089-0.307,0.01-0.523,0.279-0.639c0.888-0.384,0.699-1.014,0.405-1.675
			c-0.045,0.002-0.093-0.003-0.136,0.009c-0.336,0.091-0.538,0.627-0.927,0.404c-0.328-0.188-0.451-1.616-0.195-1.892
			c0.621-0.671,0.638-1.335,0.071-2.053c-0.367,0.276-0.432,0.788-0.805,1.032c-0.616-0.877-0.824-1.782-0.217-2.752
			c0.335-0.536-0.061-0.925-0.328-1.481c-0.249,0.569-0.454,1.037-0.666,1.52c-0.807-0.745-0.734-1.568-0.408-2.458
			c0.248-0.676,0.214-0.688-0.277-1.28c-0.362,0.487-0.329,1.12-0.635,1.628c-0.617-0.401-0.827-0.913-0.576-1.618
			c0.109-0.307,0.149-0.643,0.192-0.969c0.038-0.289-0.188-0.462-0.404-0.51c-0.26-0.058-0.211,0.247-0.262,0.392
			c-0.086,0.242-0.087,0.513-0.167,0.758c-0.068,0.208,0.073,0.645-0.319,0.555c-0.333-0.077-0.823-0.172-0.704-0.767
			c0.078-0.392,0.096-0.797,0.146-1.195c0.038-0.3-0.035-0.495-0.383-0.542c-0.411-0.056-0.316,0.25-0.353,0.453
			c-0.051,0.278-0.059,0.565-0.12,0.84c-0.056,0.25,0.154,0.685-0.407,0.627c-0.415-0.043-0.808-0.05-0.71-0.665
			c0.055-0.346-0.008-0.708,0.01-1.062c0.018-0.353-0.06-0.578-0.535-0.473C591.781,283.187,592.484,282.953,593.21,282.877z
			 M592.134,277.155c-0.013,1.39,0.174,2.753,0.48,4.103c0.043,0.191,0.069,0.405-0.193,0.447c-0.26,0.042-0.216-0.188-0.239-0.338
			C591.971,279.967,591.829,278.566,592.134,277.155z M593.53,278.651c0.228,0.79,0.205,1.604,0.466,2.368
			c0.049,0.144,0.105,0.352-0.137,0.398c-0.248,0.048-0.237-0.156-0.262-0.318C593.471,280.283,593.424,279.463,593.53,278.651z
			 M594.784,279.843c0.27,0.387,0.19,0.786,0.324,1.13c0.04,0.103,0.072,0.246-0.099,0.269c-0.153,0.02-0.181-0.115-0.199-0.229
			C594.751,280.647,594.714,280.279,594.784,279.843z M598.568,282.501c0.8-0.033,1.486,0.206,2.189,0.312
			c0.196,0.03,0.289,0.153,0.154,0.349c-0.127,0.185-0.407,0.392-0.505,0.227C599.991,282.691,599.189,282.9,598.568,282.501z
			 M609.508,288.327c0.18,0.21,0.451,0.338,0.608,0.688c-0.933,0.054-1.416-0.623-2.013-1.03c-0.233-0.159,0.138-0.433,0.237-0.651
			c0.064-0.14,0.144-0.343,0.349-0.286c0.252,0.069,0.143,0.299,0.164,0.477C608.9,287.923,609.283,288.064,609.508,288.327z
			 M611.357,292.191c0.045,0.076,0.086,0.155,0.165,0.3c-0.498,0.025-1.795-0.743-1.928-1.081c-0.064-0.163,0.57-1.182,0.744-1.193
			c0.114-0.007,0.194,0.065,0.168,0.162C610.281,291.227,611.014,291.616,611.357,292.191z M612.12,295.831
			c0.076,0.141,0.325,0.309,0.099,0.476c-0.164,0.121-0.421,0.144-0.597-0.013c-0.334-0.298-0.646-0.621-0.96-0.941
			c-0.059-0.06-0.155-0.135-0.089-0.241c0.289-0.461,0.521-0.97,1.088-1.3C611.199,294.67,611.786,295.214,612.12,295.831z
			 M611.659,307.831c0.23,0.625-0.364,0.551-0.601,0.551c-0.451,0-0.734-0.938-0.424-1.29c0.357-0.405,0.721-0.805,1.086-1.203
			c0.025-0.027,0.088-0.018,0.368-0.067C611.416,306.507,611.407,307.148,611.659,307.831z M610.57,311.597
			c0.093,0.293-0.228,0.302-0.407,0.375c-0.379,0.153-0.547-0.125-0.734-0.375c-0.118-0.157-0.232-0.272-0.047-0.474
			c0.473-0.52,0.924-1.06,1.384-1.592c0.104,0.074,0.209,0.149,0.313,0.223C610.511,310.279,610.343,310.881,610.57,311.597z
			 M608.996,314.787c0.079,0.341-0.388,0.339-0.632,0.417c-0.32,0.102-0.46-0.195-0.574-0.404c-0.148-0.271,0.158-0.346,0.301-0.463
			c0.485-0.4,0.986-0.78,1.481-1.167C609.241,313.668,608.831,314.074,608.996,314.787z M604.408,314.802
			c-0.112-0.477,0.383-0.371,0.63-0.471c0.408-0.165,0.53,0.22,0.691,0.446c0.232,0.324-0.129,0.384-0.297,0.497
			c-0.546,0.366-1.104,0.713-1.657,1.068c-0.042-0.041-0.085-0.081-0.127-0.122C604.189,315.888,604.574,315.511,604.408,314.802z
			 M605.463,313.109c0.624-0.521,0.825-1.12,0.517-1.867c-0.106-0.259,0.075-0.331,0.295-0.439c0.61-0.3,0.788,0.199,1.056,0.52
			c0.327,0.391-0.144,0.481-0.3,0.628C606.568,312.389,606.1,312.84,605.463,313.109z M605.795,290.598
			c-0.137-0.155-0.275-0.309-0.483-0.544c0.649-0.071,2.036,0.596,2.245,1c0.052,0.102,0.036,0.172-0.022,0.254
			c-0.245,0.346-0.482,0.698-0.738,1.035c-0.043,0.057-0.169,0.076-0.253,0.07c-0.117-0.009-0.154-0.118-0.108-0.208
			C606.833,291.422,606.2,291.056,605.795,290.598z M603.689,286.881c-0.029-0.03-0.049-0.068-0.135-0.188
			c0.992-0.14,1.601,0.49,2.286,0.882c0.324,0.185-0.016,0.416-0.125,0.574c-0.16,0.232-0.226,0.602-0.626,0.574
			c-0.047-0.003-0.133-0.092-0.127-0.128C605.156,287.561,604.191,287.393,603.689,286.881z M605.189,286.207
			c0.095-0.209,0.161-0.461,0.422-0.525c0.161-0.04,1.194,0.652,1.192,0.789c-0.12,0.173-0.143,0.444-0.412,0.508
			C606.273,287.006,605.156,286.279,605.189,286.207z M607.531,302.962c-0.06-0.116-0.33-0.339-0.025-0.456
			c0.237-0.091,0.519-0.305,0.78-0.029c0.242,0.255,0.468,0.524,0.703,0.786c0.104,0.116,0.154,0.246,0.047,0.377
			c-0.452,0.556-0.862,1.153-1.534,1.567C608.16,304.428,607.914,303.704,607.531,302.962z M609.088,299.384
			c-0.427,0.51-0.726,1.134-1.413,1.512c0.621-0.852,0.272-1.559-0.199-2.261c-0.097-0.144-0.3-0.365-0.139-0.484
			c0.189-0.139,0.523-0.215,0.73-0.054c0.366,0.286,0.677,0.641,1.006,0.973C609.165,299.163,609.177,299.277,609.088,299.384z
			 M607.635,296.478c-0.076,0.096-0.357,0.072-0.258-0.115c0.554-1.04-0.352-1.578-0.738-2.295c-0.02-0.037-0.013-0.089-0.025-0.186
			c0.612-0.059,1.713,0.532,1.964,1.034c0.029,0.058,0.069,0.154,0.043,0.191C608.302,295.571,607.983,296.036,607.635,296.478z
			 M607.02,307.207c-0.104-0.247-0.061-0.358,0.21-0.468c0.679-0.276,0.831,0.315,1.155,0.639c0.369,0.369-0.029,0.53-0.204,0.728
			c-0.414,0.468-0.851,0.916-1.279,1.372c-0.083-0.057-0.166-0.113-0.249-0.17C607.449,308.691,607.337,307.959,607.02,307.207z
			 M608.339,309.53c0.256-0.203,0.461-0.47,0.693-0.703c0.08-0.08,0.174-0.145,0.239-0.199c0.29,0.022,0.553,0.633,0.38,0.837
			c-0.212,0.251-0.457,0.475-0.689,0.708c-0.188,0.189-0.359,0.393-0.613,0.051C608.165,309.977,608.009,309.792,608.339,309.53z
			 M609.566,306.525c-0.796-0.778-0.796-0.778,0.439-1.967C610.767,305.368,610.975,305.055,609.566,306.525z M610.045,302.277
			c-0.2,0.135-0.383-0.319-0.591-0.486c-0.175-0.14-0.202-0.291-0.05-0.474c0.149-0.18,0.266-0.388,0.426-0.557
			c0.131-0.139,0.197-0.483,0.436-0.356c0.3,0.16,0.499,0.473,0.693,0.821C610.654,301.594,610.412,302.029,610.045,302.277z
			 M609.895,298.053c-0.277-0.004-0.83-0.444-0.751-0.87c0.066-0.36,0.369-0.75,0.741-0.975c0.093-0.056,0.842,0.772,0.826,0.929
			C610.431,297.43,610.321,298.059,609.895,298.053z M609.289,293.994c-0.359-0.047-0.849-0.438-0.896-0.867
			c-0.033-0.304,0.303-0.657,0.605-0.883c0.086-0.064,0.946,0.731,0.962,0.927C609.771,293.452,609.621,294.038,609.289,293.994z
			 M608.105,290.211c-0.398-0.13-0.915-0.364-1.007-0.85c-0.039-0.205,0.176-0.578,0.509-0.665c0.15-0.039,1.069,0.709,1.071,0.875
			C608.479,289.768,608.419,290.314,608.105,290.211z M606.944,313.287c0.303-0.263,0.613-0.518,0.92-0.776
			c0.107-0.089,0.219-0.218,0.355-0.063c0.106,0.121,0.213,0.257,0.262,0.405c0.041,0.123-1.174,1.119-1.374,1.103
			c-0.082-0.09-0.202-0.201-0.298-0.329C606.681,313.457,606.845,313.374,606.944,313.287z M611.576,304.337
			c-0.711-0.633-0.747-0.879-0.131-1.636c0.254-0.312,0.432-0.705,0.91-0.889c-0.545,0.747-0.324,1.459-0.014,2.172
			c0.067,0.154,0.117,0.308-0.12,0.387C611.996,304.445,611.804,304.539,611.576,304.337z M611.869,300.294
			c-0.287-0.274-0.54-0.583-0.806-0.879c-0.068-0.076-0.096-0.168-0.033-0.254c0.362-0.486,0.641-1.045,1.227-1.411
			c-0.49,0.803-0.103,1.456,0.226,2.12c0.066,0.132,0.235,0.315,0.044,0.426C612.334,300.409,612.063,300.48,611.869,300.294z
			 M606.012,285.158c-0.237-0.129,0.049-0.412,0.169-0.591c0.088-0.132,0.304-0.149,0.35-0.005c0.245,0.777,1.114,0.852,1.621,1.483
			C607.265,286.015,606.659,285.51,606.012,285.158z M605.324,283.013c0.843,0.036,1.552,0.405,2.239,0.83
			C606.673,283.923,606.033,283.382,605.324,283.013z M605.403,283.771c-0.679-0.214-1.359-0.424-2.037-0.644
			c-0.117-0.038-0.195-0.126-0.119-0.27c0.072-0.138,0.225-0.27,0.326-0.165C604.088,283.226,604.884,283.225,605.403,283.771z
			 M604.263,283.865c0.052,0.018,0.081,0.098,0.124,0.152c-0.039,0.073-0.065,0.138-0.104,0.193
			c-0.148,0.208-0.334,0.126-0.497,0.038c-0.338-0.183-0.797-0.152-1.026-0.498c-0.074-0.111,0.136-0.319,0.313-0.275
			C603.476,283.579,603.869,283.726,604.263,283.865z M603.631,284.772c0.136,0.046,0.192,0.146,0.105,0.269
			c-0.16,0.227-0.261,0.511-0.542,0.633c-0.136,0.059-0.273-0.023-0.276-0.132c-0.025-0.868-0.86-0.814-1.322-1.179
			c-0.084-0.066-0.238-0.042-0.264-0.283C602.191,284.073,602.883,284.517,603.631,284.772z M600.172,318.518
			c-1.288,0.606-2.608,0.949-4.029,0.54c-0.578-0.166-1.104,0.124-1.655,0.185c-1.143,0.127-1.141,0.152-1.17-0.979
			c-0.002-0.094,0-0.189,0-0.204c-0.018-0.338-0.01-0.6-0.05-0.855c-0.082-0.527,0.376-0.383,0.607-0.482
			c0.334-0.143,0.312,0.178,0.349,0.361c0.089,0.438,0.152,0.88,0.231,1.32c0.03,0.169-0.024,0.438,0.282,0.361
			c0.214-0.054,0.482-0.113,0.427-0.449c-0.081-0.487-0.124-0.985-0.254-1.459c-0.158-0.578,0.266-0.742,0.608-0.965
			c0.258-0.168,0.269,0.121,0.304,0.233c0.133,0.426,0.23,0.863,0.343,1.295c0.034,0.131,0.092,0.354,0.242,0.241
			c0.52-0.393,0.957-0.014,1.389,0.135c0.724,0.249,1.422,0.205,2.146,0.05c0.196-0.042,0.492-0.212,0.61,0.105
			C600.664,318.264,600.429,318.397,600.172,318.518z M602.61,317.364c0.309-0.026,0.604-0.255,0.907,0.071
			c0.208,0.224,0.198,0.333-0.072,0.449c-0.491,0.212-0.979,0.43-1.468,0.645c0.065-0.269,0.318-0.381,0.278-0.686
			C602.222,317.595,602.281,317.391,602.61,317.364z M604.163,318.586c-0.514,0.164-0.975,0.552-1.612,0.284
			c0.484-0.21,0.969-0.419,1.452-0.632c0.164-0.073,0.346-0.109,0.434,0.068C604.571,318.577,604.267,318.553,604.163,318.586z
			 M604.962,316.742c-0.185-0.208,0.016-0.272,0.145-0.356c0.355-0.231,0.715-0.455,1.067-0.69c0.294-0.196,0.414,0.014,0.545,0.214
			c0.013,0.114-0.06,0.164-0.143,0.215c-0.402,0.244-0.806,0.485-1.2,0.741C605.173,316.997,605.07,316.863,604.962,316.742z
			 M605.676,317.419c0.575-0.33,1.077-0.618,1.629-0.935C606.555,317.963,606.401,318.053,605.676,317.419z M606.395,318.791
			c0.646-0.566,1.641-1.025,2.344-1.082C608.14,318.246,607.252,318.655,606.395,318.791z M608.876,317.021
			c-0.129,0.028-0.282,0.143-0.368-0.029c-0.046-0.092-0.032-0.241,0.006-0.345c0.202-0.542,2.024-1.561,2.609-1.464
			c0.089,0.015,0.169,0.076,0.256,0.117C610.837,316.388,609.919,316.798,608.876,317.021z M611.929,314.137
			c-0.428-0.071-0.789,0.123-1.143,0.277c-0.443,0.193-0.476-0.018-0.465-0.202c0.012-0.815,1.661-2.158,2.296-1.998
			c0.195,0.049,0.434,0.153,0.53,0.308C613.319,312.801,612.26,314.192,611.929,314.137z M614.427,309.684
			c-0.113,0.308-0.23,0.615-0.346,0.922c-0.141,0.372-0.218,0.809-0.796,0.418c-0.256-0.173-0.564,0.047-0.799,0.161
			c-0.607,0.293-0.759,0.036-0.717-0.7c0.283-0.437,0.571-1.09,1.191-1.458c0.377-0.223,0.797-0.35,1.235,0.012
			C614.437,309.24,614.529,309.404,614.427,309.684z M615.327,306.288c-0.168,0.499-0.238,1.03-0.368,1.622
			c-0.45-0.313-0.84-0.555-1.337-0.297c-0.209,0.108-0.531,0.318-0.685,0.024c-0.152-0.291-0.319-0.662-0.136-1.013
			c0.206-0.395,0.408-0.81,0.699-1.137c0.278-0.312,0.727-0.51,1.124-0.294C615.015,305.405,615.561,305.595,615.327,306.288z
			 M630.476,297.804c-0.66,0.027-1.318,0.067-1.978,0.097c-1.413,0.065-2.828,0.116-4.24,0.197c-0.399,0.023-0.617-0.08-0.812-0.468
			c-0.697-1.381-1.84-2.099-3.407-2.096c-0.612,0.001-1.224,0-1.836,0c1.129-0.472,2.246-0.676,3.511-0.349
			c2.662,0.689,5.368,1.206,8.055,1.798c0.275,0.061,0.54,0.167,0.815,0.234c0.179,0.043,0.309,0.099,0.294,0.317
			C630.86,297.804,630.674,297.796,630.476,297.804z M631.232,292.019c0.265-0.069,0.4-0.035,0.302,0.312
			c-0.262,0.931-0.448,1.88-0.541,2.844c-0.034,0.357-0.137,0.469-0.532,0.376c-2.171-0.513-4.351-0.991-6.528-1.482
			c0.004-0.051,0.008-0.102,0.012-0.153C626.374,293.283,628.802,292.649,631.232,292.019z M625.674,291.691
			c-0.484,0.38-0.988,0.323-1.426,0.466c-0.334,0.109-0.696,0.143-1.016,0.28c-2.322,0.999-4.614,0.664-7.09-0.216
			C619.421,292.039,622.49,291.868,625.674,291.691z M615.742,302.947c-0.008,0-0.015,0-0.023,0c0,0.212,0.001,0.425,0,0.637
			c-0.002,0.504-0.141,0.746-0.618,0.315c-0.228-0.206-0.474-0.128-0.734-0.083c-0.254,0.044-0.579,0.342-0.759,0.017
			c-0.205-0.368-0.488-0.774-0.251-1.252c0.104-0.211,0.25-0.409,0.315-0.631c0.178-0.606,0.712-0.785,1.148-0.638
			c0.483,0.163,1.076,0.463,0.949,1.211C615.745,302.662,615.75,302.806,615.742,302.947z M615.623,298.368
			c0.157,0.624,0.099,1.262,0.094,1.955c-0.479-0.44-0.97-0.444-1.537-0.304c-0.645,0.158-0.571-0.507-0.734-0.824
			c-0.323-0.628,0.278-1.695,0.931-1.764C614.824,297.383,615.502,297.891,615.623,298.368z M614.767,294.38
			c0.203,0.64,0.356,1.295,0.563,2.066c-0.405-0.201-0.669-0.446-1.011-0.337c-0.723,0.232-0.983-0.252-1.285-0.76
			c-0.327-0.55-0.011-1.006,0.145-1.474c0.105-0.316,0.456-0.186,0.689-0.17C614.292,293.733,614.636,293.966,614.767,294.38z
			 M613.426,290.724c0.108,0.209,0.205,0.423,0.293,0.641c0.147,0.362,0.283,0.728,0.419,1.081c-0.312,0-0.589,0-0.865,0
			c-0.589,0-1.382-0.734-1.367-1.317c0.008-0.326-0.075-0.778,0.375-0.878C612.732,290.151,613.18,290.247,613.426,290.724z
			 M611.52,287.452c0.387,0.494,0.706,1.041,1.083,1.611c-0.943,0.24-1.465-0.189-1.986-0.721c-0.36-0.368-0.443-0.848-0.17-1.111
			C610.699,286.987,611.249,287.106,611.52,287.452z M610.517,286.162c-0.983,0.237-1.549-0.372-2.18-0.799
			c-0.205-0.139-0.328-0.429-0.232-0.621c0.125-0.251,0.421-0.104,0.628-0.037C609.486,284.949,609.91,285.602,610.517,286.162z
			 M591.43,271.347c0.524-0.64,1.248-0.995,2.035-1.214c3.045-0.846,6.127-1.526,9.262-1.936c1.841-0.241,2.792,0.38,3.36,2.156
			c1.026,3.204,1.9,6.457,3.105,9.604c0.014,0.037-0.009,0.089-0.038,0.302c-0.961-2.248-1.672-4.438-2.36-6.638
			c-0.253-0.809-0.506-1.62-0.907-2.373c-0.743-1.397-1.886-2.141-3.491-2.093c-2.137,0.064-4.189,0.644-6.266,1.06
			c-0.737,0.147-1.453,0.395-2.188,0.557c-2.484,0.547-3.561,2.263-3.882,4.62c-0.069,0.504-0.141,1.008-0.265,1.498
			C589.799,274.886,590.107,272.962,591.43,271.347z M590.903,283.654c0,0.632-0.034,1.193,0.009,1.748
			c0.048,0.607-0.443,0.536-0.749,0.6c-0.418,0.087-0.307-0.341-0.345-0.543C589.594,284.271,589.647,284.194,590.903,283.654z
			 M588.677,285.138c0.147-0.097,0.255-0.215,0.358,0.058c0.255,0.677,0.078,1.295-0.523,1.712
			c-0.055,0.038-0.122,0.059-0.228,0.109C587.944,285.924,588.027,285.568,588.677,285.138z M588.631,295.39
			c0.194-0.633,0.469-1.231,0.839-1.787c1.227-1.846,2.867-1.887,4.264-0.019c-1.192-0.159-1.891,0.401-2.357,1.319
			c-0.643,1.267-0.835,2.637-0.859,4.042c0.22-0.933,0.401-1.874,0.798-2.755c0.235-0.522,0.509-1.017,0.94-1.4
			c0.351-0.312,0.736-0.534,1.232-0.194c-1.767,1.519-1.417,3.613-1.55,5.577c0.206-1.182,0.399-2.371,1.007-3.434
			c0.217-0.38,0.436-0.909,0.937-0.848c0.445,0.055,0.591,0.581,0.714,0.981c0.806,2.632,0.946,5.334,0.771,8.06
			c-0.033,0.515-0.119,1.035-0.249,1.534c-0.091,0.349-0.152,0.838-0.581,0.896c-0.352,0.048-0.613-0.3-0.843-0.576
			c-0.585-0.703-0.929-1.527-1.208-2.384c-0.079-0.243-0.141-0.491-0.231-0.81c-0.177,1.751,0.75,4.08,1.987,5.063
			c-0.489,0.39-0.886,0.118-1.243-0.179c-0.923-0.77-1.387-1.832-1.785-2.926c-0.136-0.374-0.231-0.763-0.394-1.127
			c0.311,1.728,0.632,3.459,1.972,4.762c0.484,0.471,1.107,0.592,1.795,0.413c-0.878,1.654-2.446,1.943-3.737,0.687
			c-1.225-1.192-1.832-2.734-2.253-4.347C587.679,302.422,587.555,298.901,588.631,295.39z M587.455,314.485
			c-0.79-0.801-0.889-1.184-0.422-1.975C587.369,313.183,588.15,313.672,587.455,314.485z M587.296,286.752
			c0.498,0.87,0.493,0.894-0.371,1.771C586.313,287.766,587.003,287.316,587.296,286.752z M586.185,311.991
			c-0.652-0.773-0.775-1.463-0.275-1.966C585.969,310.721,586.8,311.221,586.185,311.991z M586.096,288.871
			c0.269,0.501,0.131,1.39-0.2,1.633c-0.044,0.032-0.142,0.057-0.17,0.033c-0.124-0.108-0.237-0.244-0.165-0.422
			C585.723,289.715,585.901,289.322,586.096,288.871z M585.171,291.498c0.357,0.624-0.146,1.109-0.275,1.659
			C584.637,292.555,584.989,292.041,585.171,291.498z M584.816,307.217c0.256-0.043,0.256,0.228,0.272,0.395
			c0.049,0.487,0.569,0.961-0.037,1.59c-0.152-0.59-0.273-1.056-0.391-1.522C584.614,307.491,584.583,307.256,584.816,307.217z
			 M584.45,305.88c-0.216,0.032-0.188-0.154-0.209-0.283c-0.057-0.347-0.111-0.694-0.16-1.009c0.047-0.201-0.157-0.471,0.103-0.521
			c0.338-0.065,0.216,0.295,0.265,0.454c0.103,0.333,0.135,0.689,0.189,1.036C584.662,305.708,584.621,305.854,584.45,305.88z
			 M584.508,294.374c0.154,0.594,0.01,1.152-0.242,1.698C584.131,295.48,584.289,294.924,584.508,294.374z M584.065,297.493
			c0.296,0.604-0.001,1.216-0.046,1.819C583.707,298.698,583.971,298.098,584.065,297.493z M583.934,300.726
			c0.268,0.531,0.268,1.1,0.285,1.665c0.004,0.129-0.062,0.234-0.209,0.211c-0.143-0.022-0.165-0.153-0.168-0.269
			C583.829,301.799,583.755,301.264,583.934,300.726z M583.761,291.258c-0.094,0.391-0.156,0.66-0.223,0.927
			c-0.062,0.248-0.129,0.495-0.195,0.745C583.112,292.585,583.301,291.579,583.761,291.258z M580.417,303.936
			c0.822,0.209,1.41-0.161,1.947-0.834C582.101,304.049,581.236,304.397,580.417,303.936z M581.414,300.361
			c-0.15-0.264-0.289-0.538-0.397-0.822c-0.144-0.374,0.297-0.454,0.369-0.387c0.292,0.272,0.513,0.622,0.762,0.948
			c-0.115,0.206-0.167,0.428-0.303,0.511C581.637,300.737,581.503,300.517,581.414,300.361z M582.752,306.513
			c-0.304-0.1-0.599-0.047-0.904,0.016c-0.232,0.048-0.525,0.015-0.548-0.28c-0.023-0.297-0.234-0.784,0.145-0.864
			c0.402-0.085,0.157,0.435,0.294,0.649c0.048,0.075,0.072,0.166,0.15,0.353c0.336-0.375,0.078-0.669,0.088-0.946
			c0.007-0.196-0.017-0.419,0.206-0.469c0.262-0.058,0.173,0.208,0.232,0.338c0.084,0.184,0.015,0.636,0.461,0.271
			c0.022-0.018,0.115,0.472,0.181,0.722C583.119,306.536,582.947,306.577,582.752,306.513z M582.954,294.408
			c-0.329-0.72-0.659-1.439-0.988-2.159C582.519,292.864,582.854,293.581,582.954,294.408z M581.089,295.549
			c0.125-0.176,0.175-0.547,0.462-0.407c0.279,0.136,0.384,0.466,0.223,0.792c-0.061,0.124-0.145,0.244-0.243,0.34
			c-0.137,0.134-0.044,0.508-0.355,0.428c-0.311-0.079-0.143-0.4-0.198-0.587C580.972,295.902,580.974,295.711,581.089,295.549z
			 M580.97,300.046c0.029,0.494,0.313,0.9,0.695,1.423c-0.923-0.3-0.99-1.066-1.362-1.593c0.268,0.759,0.232,1.702,1.279,1.974
			c0.216,0.056,0.099,0.225,0.009,0.327c-0.354,0.399-0.785,0.472-1.183,0.125c-0.808-0.705-1.041-1.703-1.262-2.695
			c-0.039-0.175,0.069-0.257,0.234-0.275c0.187-0.02,0.379-0.02,0.56-0.063C580.603,299.111,580.93,299.359,580.97,300.046z
			 M579.531,294.193c0.067,0.796,0.13,1.378,0.156,1.963c0.007,0.157,0.167,0.475-0.24,0.423c-0.268-0.034-0.509-0.085-0.459-0.459
			C579.069,295.522,579.155,294.93,579.531,294.193z M563.57,297.328c-0.074,0.21-0.209,0.293-0.42,0.304
			c-1.268,0.064-2.536,0.133-3.837,0.066c1.808-0.625,3.616-1.25,5.424-1.875C564.224,296.25,563.791,296.702,563.57,297.328z
			 M565.638,295.588c1.167-0.851,2.447-0.587,3.739,0C568.113,295.588,566.85,295.588,565.638,295.588z M572.816,297.066
			c0.771-0.858,1.552-0.39,2.488-0.145C574.387,297.036,573.636,297.131,572.816,297.066z M576.528,295.718
			c-0.288,0.261-0.587-0.079-0.901-0.213c0.277-0.145,0.553-0.289,0.879-0.46C576.639,295.304,576.666,295.594,576.528,295.718z
			 M576.861,292.327c-1.464,0.759-2.927,1.519-4.38,2.299c-0.284,0.152-0.541,0.117-0.814,0.049
			c-0.613-0.152-1.223-0.314-1.834-0.472c-0.003-0.047-0.005-0.094-0.008-0.141c2.505-0.868,5.01-1.737,7.56-2.62
			C577.437,291.894,577.221,292.14,576.861,292.327z M573.555,291.257c0.01,0.04,0.02,0.079,0.03,0.119
			c-0.517,0.191-1.033,0.387-1.553,0.572c-0.399,0.142-0.799,0.28-1.204,0.403c-1.234,0.375-2.412,1.15-3.677,1.136
			c-1.236-0.013-2.466-0.539-3.699-0.843c-0.386-0.095-0.769-0.197-1.158-0.443C566.048,291.886,569.802,291.572,573.555,291.257z
			 M556.539,292.682c0.782-0.124,1.531-0.064,2.301,0.14c1.968,0.523,3.952,0.985,5.93,1.472c0.005,0.044,0.01,0.088,0.014,0.132
			c-0.456,0.164-0.91,0.332-1.367,0.49c-1.892,0.656-3.785,1.306-5.675,1.966c-0.321,0.112-0.553,0.2-0.66-0.281
			c-0.26-1.172-0.565-2.335-0.875-3.496C556.116,292.765,556.248,292.728,556.539,292.682z M538.24,275.045
			c0.029-0.97,0.243-1.265,1.227-1.576c2.604-0.823,5.208-1.644,7.811-2.467c0.192-0.061,0.381-0.135,0.553-0.265
			c-1.985,0.465-3.97,0.931-5.955,1.396c-0.011-0.037-0.023-0.074-0.034-0.111c1.022-0.323,2.047-0.635,3.065-0.971
			c3.333-1.099,6.667-2.198,9.992-3.321c0.546-0.184,0.788-0.217,0.701,0.503c-0.33,2.707-0.309,5.419-0.01,8.129
			c0.01,0.094,0.009,0.189,0.018,0.283c0.051,0.506,0.394,1.132,0.086,1.479c-0.26,0.294-0.917,0.244-1.402,0.33
			c-0.905,0.16-1.814,0.299-2.718,0.465c-0.381,0.07-0.594-0.038-0.771-0.405c-0.413-0.858-0.972-1.618-1.73-2.214
			c-0.958-0.754-2.002-1.078-3.238-0.818c-1.088,0.229-2.154,0.518-3.187,0.916c-2.203,0.849-2.893,1.885-2.885,4.245
			c0,0.094-0.018,0.195,0.008,0.282c0.242,0.826-0.175,1.058-0.916,1.227c-0.596,0.136-0.791,0.055-0.795-0.545
			c-0.006-1.086-0.175-2.192-0.024-3.254c0.185-1.305,1.04-2.24,2.238-2.828c1.342-0.659,2.79-0.998,4.217-1.397
			c2.403-0.672,4.809-1.335,7.214-2.003c0.151-0.042,0.325-0.046,0.479-0.338C547.257,272.009,542.415,272.171,538.24,275.045z
			 M538.567,284.863c-0.155-0.545-0.107-0.874,0.54-0.981c0.431-0.072,0.842-0.264,1.241-0.498
			c-0.517,0.038-1.034,0.082-1.552,0.111c-0.22,0.012-0.508,0.105-0.516-0.279c-0.008-0.393,0.307-0.276,0.513-0.299
			c0.563-0.061,1.127-0.128,1.692-0.147c0.443-0.015,0.579-0.2,0.512-0.621c-0.143-0.905-0.001-1.78,0.276-2.647
			c0.186-0.583,0.539-0.972,1.109-1.191c1.26-0.484,2.556-0.802,3.897-0.96c0.673-0.079,1.197,0.163,1.665,0.602
			c0.776,0.729,1.294,1.63,1.622,2.624c0.174,0.526,0.414,0.607,0.916,0.488c1.672-0.396,3.356-0.744,5.033-1.119
			c0.422-0.094,0.732-0.088,0.775,0.465c0.025,0.326,0.024,0.501-0.392,0.553c-1.935,0.239-3.795,0.815-5.662,1.361
			c1.869-0.032,3.734,0.001,5.568-0.376c0.534-0.11,0.897-0.062,0.969,0.615c0.054,0.509,0.197,1.026,0.397,1.498
			c0.22,0.517-0.058,0.612-0.437,0.665c-1.446,0.202-2.894,0.394-4.341,0.591c-0.654,0.089-1.31,0.17-1.961,0.28
			c-0.393,0.066-0.582-0.057-0.728-0.446c-0.584-1.555-0.76-3.206-1.172-4.8c-0.018-0.068-0.024-0.14-0.042-0.208
			c-0.483-1.846-1.382-2.456-3.262-2.174c-0.581,0.087-1.155,0.229-1.723,0.381c-1.601,0.43-2.276,1.315-2.391,2.988
			c-0.139,2.017,0.293,3.943,0.913,5.83c0.217,0.659,0.241,1.041-0.565,1.147c-0.268,0.035-0.528,0.2-0.774,0.336
			c-0.766,0.426-0.766,0.433-1.084-0.413C539.19,287.135,538.889,285.996,538.567,284.863z M557.274,279.581
			c1.2-0.241,2.393-0.518,3.591-0.773c0.737-0.157,1.489-0.261,2.211-0.469c0.503-0.145,0.684,0.003,0.724,0.477
			c0.018,0.21,0.061,0.419,0.093,0.628c0.069,0.382-0.224,0.318-0.444,0.352c-1.979,0.308-3.958,0.614-5.936,0.931
			c-0.288,0.046-0.535,0.086-0.52-0.318C557.003,280.108,556.661,279.705,557.274,279.581z M551.559,306.099
			c0.06,0.151-0.016,0.278-0.169,0.338c-0.154,0.06-0.268,0.002-0.357-0.135c-0.079-0.123-0.168-0.237-0.04-0.377
			c0.174-0.191,0.349-0.382,0.586-0.641C551.551,305.612,551.462,305.854,551.559,306.099z M549.79,303.86
			c-0.054-0.146-0.26-0.399,0.07-0.527c0.19-0.074,0.302,0.029,0.409,0.171c0.145,0.193,0.292,0.367,0.064,0.606
			c-0.209,0.219-0.397,0.456-0.594,0.686C549.786,304.477,549.914,304.199,549.79,303.86z M548.849,293.279
			c0.543-0.083,0.828,0.265,1.018,0.562c0.205,0.321-0.178,0.557-0.412,0.822C549.705,294.014,549.073,293.754,548.849,293.279z
			 M548.669,292.446c0.135-0.603-0.484-0.737-0.699-1.146C549.015,291.438,549.237,291.774,548.669,292.446z M550.074,301.3
			c-0.076-0.152-0.302-0.361-0.026-0.548c0.134-0.091,0.276-0.078,0.363,0.067c0.131,0.219,0.497,0.361,0.283,0.703
			c-0.17,0.272-0.377,0.52-0.567,0.779C550.171,301.924,550.239,301.629,550.074,301.3z M549.99,298.512
			c-0.069-0.11-0.195-0.257-0.06-0.369c0.138-0.114,0.293-0.051,0.441,0.067c0.546,0.435,0.515,0.69-0.27,1.499
			C550.317,299.283,550.226,298.893,549.99,298.512z M550.457,295.102c-0.008-0.18,0.116-0.419,0.285-0.426
			c0.235-0.009,0.375,0.216,0.476,0.427c-0.07,0.201-0.106,0.491-0.33,0.469C550.692,295.552,550.468,295.35,550.457,295.102z
			 M550.595,291.381c0.005,0.613,0.504,0.806,0.686,1.21C550.465,292.45,550.187,292.06,550.595,291.381z M551.218,296.991
			c0.385,0.28,0.507,0.559,0.181,0.943c-0.169,0.198-0.258,0.107-0.379-0.025C550.637,297.491,551.002,297.269,551.218,296.991z
			 M550.792,302.711c0.101-0.246,0.217-0.534,0.51-0.598c0.072-0.016,0.199,0.217,0.302,0.338c-0.177,0.263-0.276,0.568-0.576,0.616
			C550.89,303.089,550.726,302.871,550.792,302.711z M551.306,300.611c-0.199-0.078-0.347-0.233-0.352-0.397
			c-0.009-0.292,0.189-0.548,0.433-0.651c0.146-0.062,0.332,0.203,0.332,0.361C551.717,300.208,551.494,300.408,551.306,300.611z
			 M551.143,294.11c-0.169-0.26,0.158-0.462,0.327-0.693c-0.063,0.536,0.379,0.829,0.584,1.291
			C551.55,294.727,551.321,294.385,551.143,294.11z M550.382,290.392c-0.082-0.068-0.127-0.216-0.04-0.313
			c0.103-0.115,0.223-0.02,0.304,0.049c0.258,0.219,0.525,0.436,0.715,0.861C550.851,290.908,550.641,290.609,550.382,290.392z
			 M550.528,292.96c0.024,0.152-0.102,0.391-0.242,0.366c-0.234-0.041-0.462-0.219-0.52-0.465c-0.026-0.111,0.123-0.265,0.2-0.412
			C550.199,292.614,550.484,292.68,550.528,292.96z M549.564,295.61c0.105-0.113,0.245-0.065,0.379,0.015
			c0.699,0.418,0.708,0.722-0.021,1.465c0.24-0.496-0.06-0.824-0.277-1.175C549.588,295.823,549.471,295.709,549.564,295.61z
			 M550.34,305.177c0.093-0.283,0.27-0.545,0.552-0.655c0.152-0.059,0.176,0.171,0.251,0.294c-0.135,0.265-0.307,0.521-0.587,0.633
			C550.415,305.505,550.299,305.302,550.34,305.177z M551.539,303.658c0.161-0.25,0.357-0.476,0.538-0.713
			c-0.012,0.332-0.081,0.589,0.049,0.865c0.067,0.142,0.105,0.313-0.087,0.425c-0.118,0.068-0.229,0.071-0.3-0.045
			C551.641,304.026,551.383,303.899,551.539,303.658z M552.111,301.818c-0.104-0.207-0.459-0.326-0.253-0.648
			c0.161-0.252,0.333-0.497,0.5-0.746c0.026,0.368-0.092,0.644,0.07,0.952c0.07,0.134,0.203,0.353-0.008,0.504
			C552.316,301.956,552.166,301.928,552.111,301.818z M552.258,299.394c-0.144-0.239-0.557-0.379-0.353-0.753
			c0.13-0.237,0.227-0.519,0.521-0.679c0.032,0.303-0.2,0.587,0.023,0.882c0.112,0.148,0.261,0.366,0.105,0.58
			C552.466,299.544,552.317,299.491,552.258,299.394z M552.38,297.037c-0.14,0.09-0.246-0.053-0.35-0.145
			c-0.555-0.491-0.553-0.558,0.107-1.273c-0.237,0.439,0.077,0.728,0.221,1.053C552.414,296.798,552.537,296.936,552.38,297.037z
			 M551.473,291.752c0.003-0.14,0.084-0.241,0.217-0.185c0.46,0.194,0.516,0.659,0.719,1.085c-0.145,0.021-0.201,0.048-0.233,0.031
			C551.799,292.482,551.462,292.246,551.473,291.752z M551.442,286.91c-0.011-0.04-0.021-0.08-0.032-0.119
			c1.901-0.299,3.803-0.599,5.704-0.896c0.116-0.018,0.236-0.011,0.353-0.025c0.231-0.028,0.286,0.14,0.31,0.302
			c0.032,0.218-0.173,0.191-0.289,0.205c-0.561,0.068-1.124,0.123-1.687,0.171C554.348,286.671,552.895,286.789,551.442,286.91z
			 M557.055,285.384c-1.52,0.178-3.039,0.357-4.562,0.501c-0.509,0.048-1.012,0.252-1.656,0.07c2.136-0.391,4.159-0.756,6.179-1.136
			c0.227-0.043,0.359-0.028,0.418,0.217C557.519,285.388,557.237,285.362,557.055,285.384z M547.894,290.324
			c-0.038,0.081-0.099,0.175-0.174,0.211c-0.23,0.112-0.183-0.112-0.234-0.215c-0.133-0.268-0.461-0.299-0.687-0.568
			c0.402-0.058,0.64,0.173,0.92,0.26C547.858,290.055,547.974,290.152,547.894,290.324z M546.702,281.517
			c-0.087-0.189-0.161-0.385-0.264-0.565c-0.081-0.141-0.176-0.288-0.302-0.385c-0.701-0.541-2.842,0.354-2.912,1.234
			c-0.05,0.629-0.01,1.265-0.034,1.899c-0.207-0.897-0.35-1.796-0.094-2.709c0.071-0.252,0.137-0.52,0.408-0.627
			c0.818-0.322,1.68-0.451,2.547-0.553c0.236-0.028,0.344,0.134,0.41,0.317C546.622,280.568,546.783,281.01,546.702,281.517z
			 M540.851,290.796c-0.138,0.044-0.252,0.004-0.262-0.133c-0.024-0.332-0.211-0.71,0.205-0.948
			c0.077-0.044,0.161-0.076,0.288-0.134c0.016,0.178,0.053,0.314,0.035,0.442C541.078,290.294,541.287,290.658,540.851,290.796z
			 M539.778,291.369c-0.253-0.407-0.098-0.7,0.28-0.977C540.195,290.803,540.329,291.172,539.778,291.369z M539.796,302.28
			c-0.371-1.995-0.399-3.982,0.185-5.949c0.115-0.387,0.284-0.75,0.508-1.085c0.633-0.948,1.376-0.925,2.03,0.06
			c-1.008,0.269-1.566,1.256-1.503,2.712c0.152-0.447,0.259-0.866,0.436-1.253c0.179-0.392,0.364-0.826,1.051-0.842
			c-0.747,0.896-0.823,1.873-0.766,2.875c0.159-0.571,0.259-1.154,0.577-1.66c0.096-0.153,0.2-0.362,0.424-0.316
			c0.173,0.035,0.226,0.227,0.286,0.38c0.303,0.78,0.371,1.605,0.441,2.426c0.099,1.154,0.148,2.31-0.08,3.457
			c-0.045,0.225-0.071,0.519-0.344,0.555c-0.22,0.029-0.35-0.21-0.476-0.38c-0.324-0.441-0.422-0.988-0.692-1.458
			c0.117,0.962,0.202,1.934,0.92,2.713c-0.949-0.188-1.084-1.063-1.459-1.738c-0.054,1.152,0.683,2.181,1.665,2.334
			c-0.509,0.958-1.243,1.077-1.93,0.272C540.311,304.495,540.005,303.402,539.796,302.28z M541.089,309.898
			c-0.447-0.091-0.602-0.32-0.519-0.714c0.035-0.164,0.111-0.267,0.288-0.171C541.251,309.226,541.077,309.566,541.089,309.898z
			 M541.856,310.464c-0.275-0.018-0.472-0.206-0.378-0.531c0.054-0.187-0.125-0.543,0.252-0.513
			c0.439,0.034,0.174,0.444,0.282,0.652C541.972,310.223,542.106,310.48,541.856,310.464z M541.094,307.513
			c1.214,0.377,1.998,0.093,2.698-1.035c0.774-1.247,1.14-2.641,1.255-4.08c0.218-2.711-0.029-5.367-1.223-7.866
			c-0.122-0.255-0.253-0.506-0.397-0.748c-0.771-1.299-1.52-1.589-2.927-1.141c0.719-0.714,1.715-0.682,2.484,0.128
			c0.902,0.949,1.341,2.153,1.695,3.377c0.911,3.155,1.013,6.307-0.163,9.428c-0.241,0.641-0.557,1.252-1.051,1.744
			C542.737,308.044,541.886,308.114,541.094,307.513z M545.951,310.451c-0.403,0.21-0.829,0.392-1.279,0.376
			c-0.581-0.021-1.145-0.108-1.742-0.013c-0.483,0.077-0.588-0.353-0.533-0.65c0-0.27-0.004-0.412,0.001-0.554
			c0.006-0.178,0.135-0.24,0.28-0.26c0.149-0.02,0.199,0.102,0.229,0.216c0.03,0.113,0.022,0.237,0.055,0.349
			c0.063,0.213-0.095,0.638,0.273,0.572c0.299-0.054,0.119-0.444,0.109-0.687c-0.009-0.21-0.074-0.418-0.077-0.628
			c-0.003-0.163,0.156-0.234,0.285-0.277c0.151-0.051,0.195,0.088,0.226,0.198c0.075,0.263,0.042,0.749,0.283,0.727
			c0.546-0.05,0.968,0.43,1.506,0.257c0.089-0.029,0.183-0.056,0.276-0.058c0.13-0.004,0.313-0.091,0.37,0.079
			C546.28,310.295,546.105,310.372,545.951,310.451z M547.05,308.327c0.126-0.056,0.339-0.118,0.423,0.103
			c0.053,0.14,0,0.264-0.097,0.389c-0.439,0.566-1.175,0.819-1.878,0.577c-0.233-0.08-0.402-0.025-0.604,0.041
			c-0.215,0.07-0.512,0.371-0.63-0.056c-0.111-0.402-0.443-0.826-0.058-1.26c0.155-0.174,0.234-0.056,0.298,0.087
			c0.095,0.211,0.187,0.424,0.284,0.645c0.526-0.271,0.218-0.616,0.104-0.894c-0.171-0.415-0.292-0.794,0.099-1.164
			c0.267,0.125,0.266,0.471,0.51,0.65c0.305-0.328,0.222-0.654,0.007-0.95c-0.325-0.448-0.242-0.865,0.059-1.392
			c0.153,0.213,0.273,0.382,0.422,0.591c0.159-0.348,0.37-0.629,0.086-0.899c-0.451-0.429-0.381-0.909-0.213-1.414
			c0.218-0.075,0.326,0.181,0.588,0.16c0.01-0.292,0.222-0.638-0.16-0.842c-0.484-0.258-0.333-0.669-0.339-1.052
			c-0.002-0.161,0.064-0.302,0.243-0.258c0.265,0.065,0.407,0.017,0.404-0.281c-0.002-0.215-0.006-0.388-0.254-0.519
			c-0.562-0.298-0.583-0.952-0.036-1.292c0.257-0.16,0.18-0.35,0.183-0.547c0.002-0.148-0.042-0.252-0.227-0.293
			c-0.556-0.124-0.752-0.769-0.33-1.151c0.247-0.223,0.357-0.423,0.225-0.73c-0.042-0.097-0.033-0.232-0.211-0.215
			c-0.153,0.015-0.302,0.468-0.461,0.021c-0.115-0.324-0.307-0.655-0.039-0.998c0.281-0.36,0.311-0.728,0.029-1.113
			c-0.264,0.031-0.214,0.404-0.466,0.453c-0.299-0.462-0.417-0.929-0.14-1.45c0.156-0.294,0.128-0.595-0.107-0.856
			c-0.286,0.108-0.163,0.476-0.411,0.636c-0.267-0.279-0.38-0.57-0.281-0.98c0.081-0.337,0.372-0.706-0.003-1.07
			c-0.357,0.149-0.141,0.613-0.429,0.8c-0.743-0.443,0.171-1.248-0.429-1.831c-0.068,0.297-0.099,0.517-0.172,0.722
			c-0.045,0.127,0.001,0.379-0.271,0.311c-0.182-0.046-0.268-0.171-0.254-0.368c0.019-0.259,0.028-0.519,0.034-0.779
			c0.003-0.12-0.011-0.247-0.167-0.261c-0.149-0.014-0.204,0.095-0.221,0.218c-0.023,0.163-0.032,0.329-0.048,0.493
			c-0.018,0.183,0.015,0.396-0.273,0.399c-0.329,0.003-0.288-0.234-0.302-0.444c-0.066-0.982-0.028-1.036,0.952-1.251
			c0.647-0.142,1.299-0.254,1.964-0.153c0.224,0.034,0.482,0.014,0.641,0.363c-0.7,0.267-1.398-0.106-2.056,0.109
			c0.747,0.223,1.478,0.466,2.258,0.394c0.269-0.025,0.516,0.031,0.749,0.159c0.245,0.135,0.59,0.253,0.434,0.609
			c-0.137,0.311-0.471,0.232-0.744,0.163c-0.319-0.081-0.631-0.187-0.949-0.27c-0.161-0.042-0.299,0.053-0.344,0.185
			c-0.068,0.2,0.145,0.22,0.254,0.25c0.652,0.179,1.256,0.577,1.975,0.46c0.357-0.058,0.558,0.198,0.797,0.38
			c0.258,0.196,0.213,0.463,0.137,0.711c-0.086,0.281-0.351,0.181-0.547,0.189c-0.346,0.014-0.631-0.191-0.918-0.338
			c-0.296-0.152-0.469-0.026-0.59,0.181c-0.205,0.35,0.191,0.336,0.323,0.382c0.625,0.22,1.154,0.722,1.926,0.545
			c0.325-0.074,0.552,0.342,0.68,0.635c0.116,0.264,0.056,0.62-0.163,0.787c-0.24,0.183-0.567,0.144-0.868-0.02
			c-0.412-0.225-0.883-0.66-1.167,0.213c0.714,0.229,1.214,1.017,2.16,0.762c0.358-0.096,0.472,0.346,0.593,0.603
			c0.167,0.355,0,0.74-0.222,0.984c-0.193,0.212-0.548,0.21-0.849,0.018c-0.333-0.212-0.679-0.603-1.048-0.027
			c-0.084,0.131-0.175,0.266,0.003,0.349c0.559,0.258,0.965,0.907,1.699,0.72c0.362-0.092,0.5,0.081,0.646,0.36
			c0.259,0.492-0.005,0.892-0.249,1.242c-0.141,0.203-0.482,0.285-0.768,0.119c-0.163-0.094-0.318-0.203-0.475-0.308
			c-0.394-0.267-0.473,0.158-0.655,0.315c-0.295,0.256,0.008,0.342,0.168,0.445c0.479,0.309,0.901,0.799,1.575,0.505
			c0.124-0.054,0.23-0.01,0.305,0.099c0.366,0.536,0.114,1.008-0.209,1.421c-0.276,0.354-0.679,0.436-1.038,0.096
			c-0.467-0.443-0.692-0.022-0.974,0.231c-0.11,0.099-0.12,0.223,0.008,0.287c0.484,0.243,0.862,0.817,1.517,0.552
			c0.584-0.236,0.547,0.28,0.555,0.521c0.026,0.776-0.935,1.36-1.589,0.956c-0.526-0.325-0.709,0.139-1.007,0.331
			c-0.135,0.087-0.01,0.215,0.095,0.267c0.443,0.219,0.815,0.69,1.41,0.387c0.106-0.054,0.299-0.137,0.379,0.026
			c0.077,0.158,0.143,0.335,0.056,0.539c-0.307,0.723-1.015,1.044-1.773,0.75c-0.49-0.19-0.712,0.215-1.158,0.407
			C546.015,308.186,546.423,308.606,547.05,308.327z M548.448,308.711c-0.066-0.305-0.276-0.634,0.125-0.802
			c0.186-0.078,0.337,0.039,0.383,0.197C549.079,308.529,548.615,308.486,548.448,308.711z M548.971,307.004
			c0.23-0.244,0.267-0.519,0.228-0.816c-0.022-0.172-0.092-0.384,0.188-0.438c0.196-0.038,0.289,0.098,0.398,0.22
			c0.169,0.188,0.069,0.314-0.064,0.472c-0.192,0.228-0.35,0.486-0.522,0.731C549.123,307.116,549.047,307.06,548.971,307.004z
			 M549.624,307.443c0.053-0.358,0.356-0.511,0.626-0.666c0.073-0.042,0.235,0.108,0.192,0.217c-0.114,0.29-0.393,0.431-0.61,0.603
			C549.703,307.597,549.609,307.538,549.624,307.443z M550.153,308.192c-0.019-0.418,0.433-0.479,0.566-0.722
			c0.121-0.051,0.178,0.001,0.142,0.033c-0.267,0.235,0.129,0.757-0.386,0.879C550.295,308.425,550.158,308.314,550.153,308.192z
			 M550.554,309.5c0.083-0.552,0.605-0.968,1.306-1.025C551.57,309.019,551.206,309.439,550.554,309.5z M551.891,307.849
			c-0.091,0.014-0.177,0.055-0.293,0.092c-0.154,0.008-0.115-0.135-0.13-0.232c-0.023-0.157,0.083-0.257,0.171-0.364
			c0.277-0.335,0.509-0.74,1.03-0.715c0.106,0.005,0.142,0.124,0.116,0.215C552.649,307.321,552.466,307.759,551.891,307.849z
			 M552.517,306.015c-0.173,0.014-0.26-0.041-0.304-0.202c-0.1-0.367,0.581-1.233,0.934-1.219c0.234-0.006,0.311,0.106,0.328,0.3
			C553.521,305.421,553.047,305.971,552.517,306.015z M553.898,302.909c-0.018,0.752-0.247,1.014-0.848,0.976
			c-0.312-0.02-0.336-0.283-0.286-0.46c0.125-0.438,0.208-0.972,0.78-1.05C553.898,302.326,553.939,302.623,553.898,302.909z
			 M553.415,301.597c-0.402,0.017-0.408-0.397-0.354-0.617c0.092-0.375,0.091-0.934,0.686-0.905
			c0.512,0.025,0.307,0.483,0.352,0.762C554.259,301.453,553.839,301.579,553.415,301.597z M554.002,298.478
			c0.088,0.486,0.083,0.745-0.383,0.762c-0.51,0.019-0.546-0.404-0.537-0.658c0.012-0.331,0.039-0.861,0.545-0.844
			C554.212,297.758,553.921,298.317,554.002,298.478z M554.088,292.876c0.331-0.066,0.473,0.026,0.55,0.369
			c0.288,1.284,0.612,2.56,0.949,3.832c0.109,0.411-0.001,0.61-0.409,0.696c-0.508,0.108-0.388-0.304-0.425-0.53
			c-0.216-1.303-0.492-2.591-1.002-3.813C553.574,293.008,553.586,292.796,554.088,292.876z M553.732,296.471
			c0.027,0.217,0.056,0.436-0.259,0.46c-0.497,0.038-0.575-0.392-0.624-0.691c-0.039-0.238-0.081-0.643,0.321-0.745
			C553.46,295.422,553.655,295.775,553.732,296.471z M553.168,294.472c0.074,0.187-0.115,0.247-0.258,0.213
			c-0.437-0.104-0.51-0.484-0.619-0.754c0.055-0.284,0.007-0.624,0.318-0.517C553.072,293.573,553.02,294.098,553.168,294.472z
			 M558.31,287.51c-0.044,0.365-0.35,0.251-0.548,0.265c-1.854,0.124-3.708,0.231-5.575,0.244c1.84-0.241,3.681-0.478,5.521-0.726
			C557.96,287.258,558.152,287.323,558.31,287.51z M564.962,283.5c0.062,0.199,0.055,0.455,0.292,0.571
			c0.041,0.507-0.372,0.457-0.659,0.492c-1.428,0.173-2.859,0.32-4.29,0.475c-0.68,0.074-1.363,0.128-2.039,0.229
			c-0.282,0.042-0.467,0.016-0.522-0.286c-0.172-0.942-0.318-1.89-0.516-2.827c-0.073-0.346,0.08-0.423,0.342-0.463
			c2.097-0.321,4.196-0.632,6.292-0.965c0.317-0.05,0.336,0.109,0.397,0.335C564.479,281.879,564.711,282.693,564.962,283.5z
			 M586.407,276.438c0.062,0.228-0.138,0.25-0.416,0.263c-1.013,0.045-2.026,0.096-3.037,0.179c-2.94,0.239-5.828,0.839-8.743,1.26
			c-3.17,0.458-6.33,0.985-9.493,1.491c-0.388,0.062-0.548-0.063-0.61-0.455c-0.164-1.027-0.175-1.006,0.874-1.233
			c6.695-1.445,13.389-2.897,20.082-4.352c0.921-0.2,0.909-0.215,1.031,0.766C586.178,275.011,586.29,275.661,586.407,276.438z
			 M610.634,264.713c-0.043,0.23-0.047,0.47-0.193,0.685c-0.34-0.235-0.363-0.542-0.31-0.924c0.189-1.356,0.743-2.551,1.515-3.669
			c-1.038,0.849-1.741,1.929-2.202,3.176c-0.588-0.331-0.588-0.331,0.085-2.176c-0.245,0.278-0.374,0.416-0.491,0.562
			c-0.118,0.147-0.216,0.311-0.339,0.454c-0.116,0.134-0.113,0.447-0.447,0.272c-0.313-0.163-0.311-0.361-0.162-0.628
			c0.054-0.096,0.15-0.189,0.003-0.498c-0.262,1.152-0.922,0.428-1.355,0.357c-2.312-0.379-4.507,0.213-6.703,0.735
			c-3.277,0.78-6.509,1.714-9.642,2.972c-2.198,0.883-3.798,2.261-4.257,4.739c-0.042-0.611-0.093-1.221-0.123-1.833
			c-0.09-1.817-0.143-3.633,0.019-5.451c0.04-0.451,0.203-0.626,0.644-0.736c4.232-1.055,8.51-1.889,12.799-2.657
			c6.332-1.134,12.713-1.769,19.154-1.657c1.934,0.034,3.867,0.148,6.007,0.234c-0.593,0.282-1.033,0.228-1.456,0.257
			c-2.683,0.183-5.356,0.423-7.994,0.996C612.559,260.496,611.118,262.136,610.634,264.713z M626.52,263.651
			c-0.054,0.516-0.052,1.038-0.073,1.557c-0.01,0.243,0.106,0.543-0.329,0.552c-0.343,0.008-0.649,0.051-0.742-0.418
			c-0.123-0.613-0.303-1.214-0.541-1.804c-0.047,0.632-0.113,1.264-0.134,1.897c-0.009,0.288-0.073,0.452-0.387,0.446
			c-0.274-0.005-0.567,0.087-0.655-0.335c-0.124-0.596-0.295-1.182-0.552-1.777c-0.043,0.581-0.107,1.162-0.122,1.745
			c-0.008,0.321-0.1,0.476-0.439,0.488c-0.294,0.01-0.557,0.063-0.639-0.345c-0.114-0.572-0.274-1.134-0.449-1.843
			c-0.184,0.637-0.178,1.16-0.181,1.678c-0.002,0.356-0.02,0.631-0.498,0.674c-0.441,0.039-0.578-0.151-0.654-0.527
			c-0.099-0.493-0.237-0.979-0.357-1.468c-0.07,0.005-0.141,0.009-0.211,0.014c0,0.523-0.002,1.047,0.001,1.57
			c0.002,0.312-0.045,0.545-0.451,0.562c-0.374,0.016-0.627-0.012-0.701-0.466c-0.084-0.516-0.247-1.019-0.375-1.527
			c-0.065,0.006-0.13,0.013-0.195,0.019c0,0.552-0.025,1.106,0.008,1.656c0.027,0.456-0.258,0.447-0.572,0.513
			c-0.38,0.079-0.498-0.065-0.568-0.41c-0.109-0.539-0.269-1.069-0.515-1.58c-0.03,0.558-0.082,1.115-0.081,1.673
			c0.001,0.404-0.183,0.529-0.553,0.554c-0.342,0.023-0.506-0.062-0.57-0.431c-0.097-0.551-0.269-1.088-0.493-1.631
			c-0.047,0.61-0.128,1.22-0.13,1.83c-0.002,0.423-0.282,0.425-0.549,0.488c-0.327,0.077-0.462-0.077-0.528-0.389
			c-0.122-0.572-0.281-1.136-0.522-1.707c-0.044,0.607-0.097,1.213-0.129,1.82c-0.013,0.246,0.012,0.482-0.343,0.478
			c-0.38-0.004-0.231-0.292-0.24-0.464c-0.056-1.106,0.205-2.153,0.637-3.163c0.16-0.375,0.166-0.369,0.69-0.549
			c0.05-0.017,0.078-0.142,0.089-0.221c0.034-0.239,0.074-0.468,0.312-0.602c0.347-0.195,0.733-0.552,1.084-0.404
			c0.381,0.161,0.038,0.689,0.25,1.163c0.086-0.426,0.156-0.741,0.21-1.058c0.038-0.226,0.12-0.359,0.368-0.446
			c0.938-0.33,1.027-0.284,1.04,0.683c0.002,0.164,0,0.329,0,0.558c0.285-0.351,0.241-0.725,0.327-1.061
			c0.063-0.245,0.103-0.478,0.442-0.552c0.859-0.19,0.96-0.125,0.949,0.773c-0.002,0.188,0,0.375,0,0.646
			c0.353-0.382,0.228-0.822,0.366-1.183c0.077-0.2,0.086-0.363,0.363-0.433c0.93-0.233,1.012-0.187,0.999,0.764
			c-0.003,0.188,0,0.375,0,0.647c0.354-0.348,0.283-0.763,0.334-1.098c0.107-0.712,0.635-0.499,1.032-0.55
			c0.545-0.07,0.337,0.375,0.382,0.632c0.033,0.184,0.032,0.374,0.064,0.784c0.364-1.513,0.508-1.696,1.328-1.556
			c0.772,0.132,0.121,0.815,0.435,1.181c0.056-0.196,0.12-0.391,0.167-0.589c0.127-0.536,0.706-0.856,1.245-0.71
			c0.228,0.062,0.214,0.216,0.217,0.379c0.004,0.258,0.001,0.516,0.06,0.814c0.14-0.749,0.255-1.49,1.299-1.249
			c0.311,0.072,0.319,0.038,0.396,0.883c0.367-0.17,0.08-0.627,0.525-0.946c0,0.492,0,0.87,0,1.248c0,0.391-0.328,0.285-0.521,0.308
			c-1.569,0.183-3.143,0.328-4.711,0.516c-2.246,0.269-4.464,0.715-6.682,1.15c-0.429,0.084-0.849,0.21-1.255,0.414
			c0.955-0.11,1.909-0.219,2.864-0.329c2.863-0.33,5.734-0.522,8.618-0.542C626.469,263.037,626.566,263.209,626.52,263.651z
			 M627.977,265.709c-0.268,0.017-0.643,0.185-0.763-0.266c-0.187-0.702-0.414-1.398-0.535-2.112
			c-0.091-0.541,0.41-0.153,0.524-0.257c0.494-0.113,0.663,0.085,0.716,0.49c0.069,0.535,0.197,1.061,0.275,1.595
			C628.224,265.368,628.346,265.686,627.977,265.709z M628.719,256.332c-4.954-0.399-9.906-0.374-14.863,0.013
			c-8.385,0.656-16.516,2.601-24.609,4.748c-0.5,0.133-0.997,0.281-1.495,0.422c-0.473,0.134-0.947,0.268-1.509,0.427
			c0.177-1.401,0.519-2.639,0.985-3.851c0.175-0.456,0.565-0.485,0.915-0.541c1.396-0.221,2.798-0.409,4.199-0.598
			c3.275-0.44,6.56-0.799,9.851-1.086c3.199-0.278,6.404-0.481,9.613-0.624c5.101-0.228,10.204-0.203,15.307-0.142
			c0.203,0.002,0.466,0.106,0.597-0.108c0.673-1.101,1.706-1.001,2.875-0.863c-0.795,0.422-1.191,1.018-1.266,1.822
			C629.283,256.325,629.06,256.36,628.719,256.332z M650.098,267.534c-3.115-0.124-6.225-0.313-9.326-0.644
			c-3.073-0.328-6.13-0.763-9.175-1.287c-0.684-0.118-1.099-0.558-1.227-1.215c-0.534-2.74-0.567-5.486,0.009-8.225
			c0.157-0.745,0.565-1.087,1.292-1.034c6.656,0.484,13.25,1.401,19.748,2.967c-1.017-0.157-2.033-0.315-3.05-0.472
			c-3.337-0.515-6.69-0.892-10.061-1.099c-2.051-0.126-4.104-0.206-6.154-0.342c-0.501-0.033-0.732,0.105-0.808,0.608
			c-0.346,2.306-0.337,4.606,0.011,6.913c0.088,0.586,0.37,0.811,0.93,0.907c4.718,0.806,9.444,1.564,14.201,2.099
			c3.756,0.423,7.529,0.65,11.308,0.758c0.115,0.003,0.231,0,0.346,0C655.461,267.61,652.779,267.64,650.098,267.534z
			 M634.328,260.461c2.366-0.613,20.052,1.625,23.311,2.98C649.857,262.758,642.114,261.705,634.328,260.461z M657.325,265.038
			c-7.566-0.315-15.08-1.192-22.585-2.091C642.318,263.158,649.845,263.85,657.325,265.038z M634.939,258.122
			c7.518,0.419,14.943,1.417,22.172,3.628C649.746,260.38,642.348,259.214,634.939,258.122z M660.683,268.463
			c-0.14,0.611-0.711,0.125-1.075,0.213c0.939-0.879,0.772-2.064,1.022-3.231C660.888,266.517,660.903,267.506,660.683,268.463z
			 M657.665,258.194c-1.371-0.392-2.731-0.821-4.097-1.229c-6.53-1.947-13.194-3.174-19.987-3.737
			c-5.031-0.417-10.058-0.402-15.077,0.079c-4.041,0.387-8.07,0.895-12.104,1.352c-4.525,0.512-9.028,1.18-13.514,1.961
			c-0.989,0.172-1.979,0.333-2.969,0.499c7.986-2.462,16.163-3.813,24.704-4.233c-2.169-1.422-4.269-2.48-6.484-3.298
			c-3.792-1.399-7.747-1.985-11.755-2.324c-4.509-0.382-9.016-0.343-13.526-0.07c-0.596,0.036-1.19,0.12-1.851,0.188
			c0.141,0.216,0.224,0.356,0.319,0.487c1.903,2.65,3.638,5.405,5.177,8.284c0.199,0.372,0.247,0.687,0.087,1.118
			c-0.514,1.391-0.928,2.818-1.083,4.303c-0.047,0.453-0.238,0.67-0.703,0.807c-3.615,1.066-7.221,2.166-10.827,3.264
			c-1.347,0.41-2.687,0.841-4.031,1.263c2.852-0.627,5.669-1.37,8.491-2.096c2.077-0.534,4.157-1.053,6.24-1.562
			c0.268-0.066,0.688-0.317,0.649,0.333c-0.183,3.034,0.192,6.037,0.551,9.038c0.058,0.484-0.051,0.588-0.509,0.66
			c-3.052,0.475-6.1,0.98-9.146,1.489c-3.976,0.664-7.951,1.34-11.925,2.013c-0.29,0.049-0.47,0.046-0.509-0.348
			c-0.183-1.841-0.164-3.681-0.046-5.523c0.143-2.243,0.662-4.423,1.069-6.626c0.566-3.06,0.96-6.152,1.412-9.233
			c0.089-0.604,0.325-1.196,0.242-1.896c-1.034,0.526-2.008,1.002-2.962,1.513c-0.602,0.322-1.017,0.837-1.28,1.467
			c-1.274,3.053-2.263,6.196-2.981,9.426c-0.12,0.538,0.067,0.483,0.446,0.379c1.226-0.337,2.466-0.628,3.687-0.981
			c0.541-0.156,0.684-0.028,0.557,0.506c-0.269,1.126-0.415,2.274-0.532,3.423c-0.257,2.524-0.222,5.049,0.031,7.572
			c0.024,0.242,0.1,0.442-0.274,0.502c-2.003,0.318-4.002,0.655-6,1.003c-0.36,0.063-0.431-0.06-0.46-0.39
			c-0.124-1.416-0.106-2.83-0.047-4.249c0.134-3.205,0.892-6.298,1.656-9.387c0.713-2.885,1.513-5.749,2.937-8.389
			c0.558-1.036,1.261-1.962,2.301-2.541c4.158-2.314,8.565-4.044,13.088-5.487c0.835-0.267,1.651-0.084,2.31,0.524
			c0.415,0.383,0.808,0.799,1.157,1.242c1.036,1.32,1.977,2.707,2.881,4.12c0.567,0.885,1.155,1.758,1.733,2.636
			c-0.64-1.934-3.807-7.2-5.363-9.102c2.836-1.006,15.651-0.461,23.717,1.023c-1.165-0.734-2.414-0.906-3.607-1.216
			c-3.89-1.012-7.855-1.591-11.85-1.977c-3.116-0.301-6.226-0.348-9.304,0.353c-4.93,1.124-9.5,3.191-14.061,5.305
			c-2.587,1.199-4.339,3.076-5.419,5.69c-1.148,2.778-1.976,5.647-2.636,8.568c-0.122,0.54-0.381,0.737-0.837,0.888
			c-5.144,1.702-10.263,3.478-15.463,5.009c-1.835,0.54-3.013,1.79-3.466,3.679c-0.183,0.762-0.237,1.534-0.269,2.315
			c-0.167,4.111,0.002,8.192,1.603,12.045c0.582,1.4,0.621,2.53,0.014,3.982c-0.97,2.322-1.284,4.771-1.201,7.249h-5.371V254.56
			h6.81v-16.099l2.31-0.77l17.081-22.684l10.9-9.909l30.339,28.163l-8.248-29.081c11.436,17.498,37.381,47.209,34.568,41.27
			c-2.813-5.938-12.319-35.279-12.319-35.279s32.766,43.799,31.428,41.459c-0.796-1.393-15.138-27.335-26.629-48.126
			L657.665,258.194z"/>
		
			<linearGradient id="SVGID_2_" gradientUnits="userSpaceOnUse" x1="-209.278" y1="598.283" x2="-209.278" y2="511.377" gradientTransform="matrix(1 0 0 -1 342.34 832.04)">
			<stop  offset="0" style="stop-color:#51AFE2"/>
			<stop  offset="0.0169" style="stop-color:#50A6DD"/>
			<stop  offset="0.0671" style="stop-color:#4D91CE"/>
			<stop  offset="0.1183" style="stop-color:#4C81C2"/>
			<stop  offset="0.1704" style="stop-color:#4A77BB"/>
			<stop  offset="0.2239" style="stop-color:#4971B7"/>
			<stop  offset="0.2809" style="stop-color:#496FB6"/>
			<stop  offset="0.6685" style="stop-color:#494EA1"/>
			<stop  offset="0.8876" style="stop-color:#34409A"/>
			<stop  offset="1" style="stop-color:#1D1752"/>
		</linearGradient>
		<polygon fill="url(#SVGID_2_)" points="191.385,254.562 198.195,254.562 198.195,233.757 146.089,233.757 132.968,267.308 
			120.16,233.757 67.742,233.757 67.742,254.562 74.614,254.562 74.614,299.859 67.929,299.859 67.929,320.663 101.604,320.663 
			101.604,299.859 94.732,299.859 94.732,251.939 120.723,320.663 133.718,320.663 159.958,251.314 159.958,299.859 
			153.024,299.859 153.024,320.663 198.382,320.663 198.382,299.859 191.385,299.859 		"/>
		
			<linearGradient id="SVGID_3_" gradientUnits="userSpaceOnUse" x1="-113.3745" y1="534.118" x2="-113.3745" y2="511.376" gradientTransform="matrix(1 0 0 -1 342.34 832.04)">
			<stop  offset="0" style="stop-color:#51AFE2"/>
			<stop  offset="0.0169" style="stop-color:#50A6DD"/>
			<stop  offset="0.0671" style="stop-color:#4D91CE"/>
			<stop  offset="0.1183" style="stop-color:#4C81C2"/>
			<stop  offset="0.1704" style="stop-color:#4A77BB"/>
			<stop  offset="0.2239" style="stop-color:#4971B7"/>
			<stop  offset="0.2809" style="stop-color:#496FB6"/>
			<stop  offset="0.6685" style="stop-color:#494EA1"/>
			<stop  offset="0.8876" style="stop-color:#34409A"/>
			<stop  offset="1" style="stop-color:#1D1752"/>
		</linearGradient>
		<rect x="213.377" y="297.922" fill="url(#SVGID_3_)" width="31.177" height="22.742"/>
		
			<linearGradient id="SVGID_4_" gradientUnits="userSpaceOnUse" x1="-39.402" y1="598.2831" x2="-39.402" y2="511.3771" gradientTransform="matrix(1 0 0 -1 342.34 832.04)">
			<stop  offset="0" style="stop-color:#51AFE2"/>
			<stop  offset="0.0169" style="stop-color:#50A6DD"/>
			<stop  offset="0.0671" style="stop-color:#4D91CE"/>
			<stop  offset="0.1183" style="stop-color:#4C81C2"/>
			<stop  offset="0.1704" style="stop-color:#4A77BB"/>
			<stop  offset="0.2239" style="stop-color:#4971B7"/>
			<stop  offset="0.2809" style="stop-color:#496FB6"/>
			<stop  offset="0.6685" style="stop-color:#494EA1"/>
			<stop  offset="0.8876" style="stop-color:#34409A"/>
			<stop  offset="1" style="stop-color:#1D1752"/>
		</linearGradient>
		<path fill="url(#SVGID_4_)" d="M327.147,254.562h6.998v-20.805h-62.477v20.805h6.997l-16.306,45.297h-6.623v20.804h34.425v-19.055
			h-7.122l3.811-10.934h22.242l3.311,10.934h-7.622v19.055h45.359v-20.804h-6.373L327.147,254.562z M290.161,279.866l8.185-24.054
			l7.372,24.054H290.161z"/>
		
			<linearGradient id="SVGID_5_" gradientUnits="userSpaceOnUse" x1="34.5085" y1="534.118" x2="34.5085" y2="511.376" gradientTransform="matrix(1 0 0 -1 342.34 832.04)">
			<stop  offset="0" style="stop-color:#51AFE2"/>
			<stop  offset="0.0169" style="stop-color:#50A6DD"/>
			<stop  offset="0.0671" style="stop-color:#4D91CE"/>
			<stop  offset="0.1183" style="stop-color:#4C81C2"/>
			<stop  offset="0.1704" style="stop-color:#4A77BB"/>
			<stop  offset="0.2239" style="stop-color:#4971B7"/>
			<stop  offset="0.2809" style="stop-color:#496FB6"/>
			<stop  offset="0.6685" style="stop-color:#494EA1"/>
			<stop  offset="0.8876" style="stop-color:#34409A"/>
			<stop  offset="1" style="stop-color:#1D1752"/>
		</linearGradient>
		<rect x="361.26" y="297.922" fill="url(#SVGID_5_)" width="31.177" height="22.742"/>
		
			<linearGradient id="SVGID_6_" gradientUnits="userSpaceOnUse" x1="294.796" y1="563.3246" x2="294.796" y2="547.5382" gradientTransform="matrix(1 0 0 -1 342.34 832.04)">
			<stop  offset="0" style="stop-color:#51AFE2"/>
			<stop  offset="0.0169" style="stop-color:#50A6DD"/>
			<stop  offset="0.0671" style="stop-color:#4D91CE"/>
			<stop  offset="0.1183" style="stop-color:#4C81C2"/>
			<stop  offset="0.1704" style="stop-color:#4A77BB"/>
			<stop  offset="0.2239" style="stop-color:#4971B7"/>
			<stop  offset="0.2809" style="stop-color:#496FB6"/>
			<stop  offset="0.6685" style="stop-color:#494EA1"/>
			<stop  offset="0.8876" style="stop-color:#34409A"/>
			<stop  offset="1" style="stop-color:#1D1752"/>
		</linearGradient>
		<path fill="url(#SVGID_6_)" d="M663.528,270.529c-0.838-0.128-1.69-0.172-2.538-0.231c-4.358-0.301-8.716-0.593-13.074-0.892
			c-5.302-0.364-10.609-0.608-15.924-0.675c-3.45-0.049-6.899,0.017-10.343,0.203c-3.842,0.208-7.671,0.572-11.489,1.06
			c-1.284,0.164-1.248,0.121-1.022,1.404c0.796,4.52,2.692,8.62,4.755,12.661c0.176,0.345,0.367,0.47,0.76,0.438
			c1.482-0.12,2.967-0.211,4.452-0.299c4.314-0.253,8.63-0.474,12.942-0.755c6.601-0.429,13.209-0.691,19.822-0.769
			c2.999-0.035,5.999,0.057,8.999,0.088c1.083,0.011,1.969-0.39,2.414-1.41c1.22-2.794,1.912-5.719,1.973-8.775
			C665.279,271.43,664.671,270.704,663.528,270.529z M662.604,278.615c-0.224,0.544-0.42,1.101-0.595,1.663
			c-0.208,0.67-0.647,0.922-1.332,0.891c-3.14-0.145-6.284-0.12-9.425-0.082c-5.787,0.069-11.569,0.293-17.346,0.653
			c-4.337,0.27-8.677,0.502-13.015,0.757c-1.721,0.101-3.441,0.217-5.162,0.327c-0.141,0.009-0.283,0.037-0.423,0.034
			c-0.271-0.006-0.365-0.231-0.395-0.429c-0.051-0.328,0.242-0.21,0.393-0.227c4.269-0.464,8.531-0.987,12.817-1.312
			c6.953-0.528,13.914-0.771,20.883-0.784c3.211-0.006,6.425,0.039,9.634,0.222c0.305,0.017,0.612,0.002,0.918,0.002
			c0.002-0.035,0.004-0.069,0.006-0.104c-2.789-0.234-5.575-0.506-8.367-0.695c-6.437-0.435-12.882-0.635-19.334-0.637
			c-5.507-0.002-11.005,0.241-16.5,0.571c-0.519,0.031-1.039,0.038-1.559,0.053c-0.198,0.006-0.417-0.012-0.411-0.266
			c0.006-0.241,0.242-0.16,0.386-0.184c2.887-0.483,5.793-0.82,8.704-1.111c6.098-0.609,12.217-0.633,18.336-0.539
			c7.109,0.11,14.217,0.289,21.324,0.528C662.68,277.966,662.811,278.114,662.604,278.615z M663.678,272.929
			c-0.058,0.468-0.131,0.939-0.131,1.409c-0.001,0.643-0.246,0.842-0.9,0.766c-2.32-0.271-4.645-0.52-6.972-0.721
			c-2.94-0.253-5.883-0.482-8.828-0.664c-4.386-0.272-8.778-0.424-13.173-0.381c-4.489,0.043-8.967,0.314-13.437,0.734
			c-2.679,0.252-5.36,0.487-8.033,0.79c-0.792,0.09-0.688-0.49-0.795-0.873c-0.146-0.522,0.369-0.384,0.595-0.42
			c3.704-0.586,7.42-1.082,11.152-1.459c0.266-0.027,0.526-0.121,0.986-0.231c-3.789,0.178-7.38,0.178-10.958,0.479
			c-0.588,0.049-1.182,0.034-1.769,0.089c-0.456,0.043-0.47-0.24-0.533-0.561c-0.085-0.435,0.234-0.407,0.467-0.434
			c3.048-0.358,6.102-0.678,9.165-0.856c3.727-0.217,7.459-0.337,11.193-0.283c5.149,0.074,10.293,0.287,15.432,0.646
			c3.792,0.265,7.586,0.497,11.379,0.758c1.484,0.102,2.964,0.263,4.448,0.353C663.569,272.105,663.746,272.379,663.678,272.929z"/>
		
			<linearGradient id="SVGID_7_" gradientUnits="userSpaceOnUse" x1="232.8912" y1="583.1976" x2="232.8912" y2="568.2565" gradientTransform="matrix(1 0 0 -1 342.34 832.04)">
			<stop  offset="0" style="stop-color:#51AFE2"/>
			<stop  offset="0.0169" style="stop-color:#50A6DD"/>
			<stop  offset="0.0671" style="stop-color:#4D91CE"/>
			<stop  offset="0.1183" style="stop-color:#4C81C2"/>
			<stop  offset="0.1704" style="stop-color:#4A77BB"/>
			<stop  offset="0.2239" style="stop-color:#4971B7"/>
			<stop  offset="0.2809" style="stop-color:#496FB6"/>
			<stop  offset="0.6685" style="stop-color:#494EA1"/>
			<stop  offset="0.8876" style="stop-color:#34409A"/>
			<stop  offset="1" style="stop-color:#1D1752"/>
		</linearGradient>
		<path fill="url(#SVGID_7_)" d="M579.493,250.287c-0.829-1.409-2.018-1.76-3.598-1.172c-2.275,0.847-4.5,1.817-6.713,2.816
			c-0.341,0.154-0.484,0.366-0.559,0.731c-0.717,3.491-1.24,7.011-1.669,10.548c-0.075,0.616,0.119,0.652,0.626,0.494
			c2.497-0.775,5-1.528,7.501-2.289c1.503-0.457,3.007-0.915,4.544-1.383c-0.24-0.305-0.509-0.265-0.763-0.252
			c-0.613,0.031-1.228,0.053-1.839,0.112c-1.306,0.126-2.045-0.427-2.292-1.734c-0.074-0.394-0.168-0.784-0.24-1.178
			c-0.168-0.924,0.455-1.772,1.387-1.868c0.61-0.063,1.224-0.097,1.837-0.129c1.144-0.059,1.61,0.277,2.011,1.36
			c0.125,0.339,0.121,0.751,0.499,0.977c0.851,0.508,1.693,1.031,2.536,1.55c0.245,0.151,0.459,0.04,0.664-0.075
			c0.175-0.098,0.077-0.24,0.018-0.365C582.16,255.7,581.027,252.893,579.493,250.287z"/>
		
			<linearGradient id="SVGID_8_" gradientUnits="userSpaceOnUse" x1="236.2943" y1="576.4702" x2="236.2943" y2="572.4304" gradientTransform="matrix(1 0 0 -1 342.34 832.04)">
			<stop  offset="0" style="stop-color:#51AFE2"/>
			<stop  offset="0.0169" style="stop-color:#50A6DD"/>
			<stop  offset="0.0671" style="stop-color:#4D91CE"/>
			<stop  offset="0.1183" style="stop-color:#4C81C2"/>
			<stop  offset="0.1704" style="stop-color:#4A77BB"/>
			<stop  offset="0.2239" style="stop-color:#4971B7"/>
			<stop  offset="0.2809" style="stop-color:#496FB6"/>
			<stop  offset="0.6685" style="stop-color:#494EA1"/>
			<stop  offset="0.8876" style="stop-color:#34409A"/>
			<stop  offset="1" style="stop-color:#1D1752"/>
		</linearGradient>
		<path fill="url(#SVGID_8_)" d="M579.066,256.285c-0.088-0.557-0.578-0.754-1.144-0.709c-0.588,0.047-1.177,0.069-1.765,0.107
			c-0.827,0.054-1.183,0.506-1.036,1.309c0.059,0.324,0.125,0.647,0.184,0.971c0.203,1.127,0.534,1.333,1.68,1.312
			c0.951-0.017,1.945-0.378,2.852,0.109c0.828,0.445,1.522,0.155,2.343-0.21c-0.478-0.285-0.866-0.553-1.285-0.758
			C579.975,257.965,579.243,257.405,579.066,256.285z M576.443,256.369c1.677-0.465,2.162-0.178,2.201,1.344
			C578.461,256.333,577.476,256.311,576.443,256.369z"/>
		
			<linearGradient id="SVGID_9_" gradientUnits="userSpaceOnUse" x1="223.6408" y1="564.9586" x2="223.6408" y2="563.3531" gradientTransform="matrix(1 0 0 -1 342.34 832.04)">
			<stop  offset="0" style="stop-color:#51AFE2"/>
			<stop  offset="0.0169" style="stop-color:#50A6DD"/>
			<stop  offset="0.0671" style="stop-color:#4D91CE"/>
			<stop  offset="0.1183" style="stop-color:#4C81C2"/>
			<stop  offset="0.1704" style="stop-color:#4A77BB"/>
			<stop  offset="0.2239" style="stop-color:#4971B7"/>
			<stop  offset="0.2809" style="stop-color:#496FB6"/>
			<stop  offset="0.6685" style="stop-color:#494EA1"/>
			<stop  offset="0.8876" style="stop-color:#34409A"/>
			<stop  offset="1" style="stop-color:#1D1752"/>
		</linearGradient>
		<path fill="url(#SVGID_9_)" d="M566.984,267.085c-0.72,0.087-1.443,0.191-2.121,0.455c-0.321,0.125-0.405,0.435-0.352,0.77
			c0.047,0.297,0.271,0.349,0.514,0.377c0.645-0.138,1.295-0.246,1.925-0.425c0.331-0.094,0.549-0.38,0.511-0.753
			C567.434,267.255,567.258,267.052,566.984,267.085z"/>
	</g>
	<g>
		<path fill="#0B0040" d="M713.255,403.887c-209.92,0-419.839,0-629.759,0c-0.326-0.126-0.642-0.295-0.979-0.372
			c-6.962-1.598-11.509-5.817-13.757-12.58c-0.236-0.711-0.098-1.553-0.712-2.136c0-8.622,0-17.244,0-25.866
			c0.103-0.137,0.264-0.26,0.302-0.414c2.421-9.681,8.887-14.739,18.858-14.739c110.946,0,221.892,0,332.838,0
			c96.696,0,193.392,0,290.088,0.001c8.369,0,15.226,4.918,17.623,12.652c0.365,1.177,0.632,2.384,0.944,3.578
			c0,7.903,0,15.807,0,23.71c-0.302,0.172-0.312,0.48-0.355,0.77c-0.731,4.972-3.216,8.871-7.168,11.923
			C718.814,402.24,716.01,402.99,713.255,403.887z M506.042,382.917c-0.917-0.945-1.118-1.843-1.475-2.653
			c-2.693-6.117-5.379-12.236-8.035-18.369c-0.425-0.981-0.899-1.664-2.121-1.353c-0.516,0.131-1.072,0.203-1.601,0.168
			c-1.574-0.104-2.075,0.567-1.965,2.13c0.585,8.359,0.603,16.724,0.005,25.083c-0.109,1.524,0.342,2.086,1.897,1.75
			c0.682-0.147,1.446-0.113,2.137,0.023c1.175,0.231,1.473-0.246,1.454-1.326c-0.065-3.648-0.077-7.297-0.102-10.945
			c-0.01-1.381-0.002-2.762-0.002-4.144c0.552,0.382,0.796,0.777,0.978,1.198c1.983,4.606,3.998,9.198,5.903,13.835
			c0.524,1.274,1.203,1.861,2.622,1.897c1.441,0.037,1.958-0.688,2.421-1.863c1.856-4.72,3.784-9.411,5.702-14.107
			c0.131-0.32,0.093-0.86,0.445-0.825c0,4.528,0.066,9.005-0.024,13.48c-0.057,2.811-0.157,2.81,2.544,2.71
			c0.417-0.015,0.856-0.053,1.249,0.051c1.723,0.458,2.036-0.351,1.945-1.875c-0.472-7.883-0.437-15.767-0.138-23.66
			c0.137-3.613,0.646-3.229-3.325-3.422c-1.321-0.064-2.058,0.269-2.484,1.635c-0.673,2.161-1.571,4.253-2.402,6.363
			C509.839,373.352,507.99,377.999,506.042,382.917z M142.109,373.236c0.517,0.196,0.489,0.438,0.484,0.681
			c-0.107,4.481-0.231,8.962-0.31,13.444c-0.041,2.331-0.006,2.326,2.404,2.241c0.476-0.017,0.973-0.043,1.429,0.066
			c1.551,0.373,1.793-0.365,1.743-1.719c-0.173-4.658-0.326-9.32-0.337-13.981c-0.009-3.883,0.163-7.768,0.317-11.649
			c0.042-1.065-0.314-1.568-1.385-1.557c-0.598,0.006-1.206,0.043-1.792-0.049c-1.575-0.248-2.291,0.413-2.834,1.921
			c-1.738,4.826-3.636,9.596-5.54,14.36c-0.764,1.913-1.368,3.911-2.508,5.689c-0.655-0.404-0.745-1.033-0.972-1.552
			c-2.586-5.905-5.135-11.826-7.721-17.731c-1.296-2.96-1.317-2.878-4.553-2.701c-1.412,0.077-1.96,0.59-1.774,1.967
			c0.071,0.531,0.049,1.073,0.082,1.61c0.45,7.344,0.448,14.691,0.026,22.033c-0.184,3.202-0.274,3.197,2.866,3.276
			c2.496,0.063,2.495,0.063,2.495-2.508c-0.001-4.636,0-9.271,0-13.968c0.629,0.36,0.683,0.999,0.906,1.511
			c2,4.597,4.041,9.179,5.923,13.825c0.557,1.374,1.401,1.683,2.707,1.754c1.402,0.076,1.879-0.713,2.243-1.823
			c0.316-0.962,0.706-1.902,1.088-2.841C138.763,381.428,140.442,377.324,142.109,373.236z M672.941,381.403
			c-0.703-0.779-1.044-1.102-1.322-1.472c-4.095-5.448-8.292-10.825-12.215-16.394c-1.534-2.178-3.076-3.477-5.797-2.697
			c-0.055,0.016-0.119,0.008-0.179,0.003c-1.033-0.089-1.36,0.419-1.307,1.401c0.126,2.326,0.176,4.656,0.287,6.983
			c0.28,5.862-0.132,11.711-0.272,17.566c-0.066,2.782-0.018,2.781,2.685,2.791c0.298,0.001,0.608-0.004,0.893,0.07
			c1.459,0.38,1.675-0.351,1.655-1.607c-0.087-5.68-0.107-11.362-0.122-17.043c-0.001-0.478-0.275-1.063,0.363-1.518
			c0.456,0.572,0.913,1.119,1.342,1.687c3.894,5.15,7.859,10.249,11.636,15.483c1.442,1.999,2.781,3.446,5.576,3.084
			c1.279-0.165,1.601-0.351,1.6-1.573c-0.011-8.011-0.123-16.023,0.282-24.031c0.161-3.197,0.053-3.202-3.185-3.302
			c-0.179-0.006-0.362-0.004-0.536-0.039c-1.303-0.263-1.814,0.17-1.749,1.582c0.187,4.058,0.271,8.121,0.356,12.182
			C672.978,376.677,672.941,378.796,672.941,381.403z M377.577,390.367c3.786,0.036,6.996-1.294,9.636-4.016
			c3.888-4.007,5.134-8.842,4.144-14.204c-0.975-5.283-3.924-9.273-9.008-11.213c-4.67-1.782-9.216-1.139-13.163,2.068
			c-5.27,4.282-7.142,11.465-4.798,17.851C366.567,386.788,371.54,390.376,377.577,390.367z M443.32,390.37
			c2.24-0.013,4.102-0.424,5.893-1.301c8.756-4.285,10.944-17.118,4.163-24.412c-4.679-5.033-11.726-6.138-17.234-2.571
			c-4.169,2.7-6.384,6.647-6.941,11.575C428.192,382.594,434.787,390.421,443.32,390.37z M402.439,360.757
			c-1.914,0-3.832,0.075-5.741-0.024c-1.435-0.074-1.89,0.426-1.775,1.857c0.649,8.119,0.508,16.242,0.034,24.366
			c-0.155,2.664-0.086,2.661,2.512,2.64c0.476-0.004,0.966,0.018,1.425,0.129c1.37,0.332,1.853-0.19,1.766-1.563
			c-0.147-2.324-0.168-4.657-0.302-6.982c-0.061-1.059,0.329-1.581,1.397-1.576c1.316,0.005,2.634-0.039,3.947,0.023
			c0.956,0.045,1.638,0.5,2.018,1.482c0.711,1.837,1.626,3.598,2.285,5.451c0.785,2.206,1.726,3.942,4.556,3.043
			c0.425-0.135,0.959-0.02,1.423,0.075c1.428,0.291,1.375-0.333,0.9-1.334c-1.28-2.697-2.484-5.431-3.819-8.101
			c-0.632-1.263-0.564-2.029,0.663-2.975c3.401-2.623,3.532-6.357,2.766-10.118c-0.689-3.384-3.141-5.216-6.38-6.083
			C407.58,360.389,405.002,360.737,402.439,360.757z M547.147,375.27c-0.033,0-0.065,0-0.098,0.001
			c0,4.359,0.046,8.718-0.028,13.076c-0.022,1.293,0.502,1.525,1.612,1.426c3.457-0.31,6.915-0.252,10.377,0.002
			c1.429,0.105,2.872-0.047,4.239-0.511c5.731-1.948,8.211-6.408,9.067-12.01c1.286-8.422-3.652-15.085-11.961-16.244
			c-3.868-0.539-7.761-0.087-11.637-0.275c-1.292-0.063-1.612,0.413-1.594,1.63C547.184,366.665,547.147,370.968,547.147,375.27z
			 M266.796,389.577c0.238,0.019,0.477,0.04,0.715,0.055c2.263,0.14,2.272,0.137,1.417-2.062
			c-3.051-7.842-6.222-15.641-9.099-23.546c-0.975-2.679-2.079-4.269-5.226-3.721c-0.999,0.174-1.555,0.286-1.957,1.29
			c-3.266,8.141-6.508,16.29-9.421,24.567c-1.309,3.719-1.348,3.635,2.627,3.69c1.375,0.019,1.931-0.548,2.239-1.733
			c0.285-1.095,0.671-2.164,0.993-3.25c0.317-1.07,0.98-1.493,2.125-1.459c2.391,0.072,4.786,0.021,7.179,0.021
			c3.558,0,3.558,0,4.611,3.334C263.891,389.588,263.891,389.588,266.796,389.577z M170.298,371.961c0.038,0,0.076,0,0.115,0
			c0,3.113,0.025,6.225-0.008,9.338c-0.026,2.54-1.117,3.827-3.595,4.394c-1.361,0.312-2.741,0.243-4.112,0.18
			c-3.695-0.17-5.178-1.71-5.17-5.407c0.011-5.266,0.082-10.533,0.106-15.799c0.019-4.064,0.005-4.018-4.185-3.939
			c-1.152,0.022-1.419,0.432-1.368,1.478c0.152,3.165,0.217,6.335,0.352,9.501c0.183,4.3-0.328,8.617,0.356,12.905
			c0.383,2.402,1.592,4.142,3.99,4.791c4.593,1.243,9.24,1.282,13.828,0.065c2.388-0.633,4.132-2.168,4.537-4.788
			c0.182-1.178,0.319-2.375,0.324-3.565c0.027-5.384-0.013-10.767,0.332-16.146c0.271-4.226,0.232-4.194-3.949-4.232
			c-1.157-0.01-1.595,0.341-1.573,1.53C170.336,365.497,170.298,368.729,170.298,371.961z M584.849,360.758
			c-2.633,0-5.266,0.037-7.898-0.019c-1.015-0.021-1.415,0.307-1.318,1.333c0.124,1.308,0.184,2.622,0.25,3.935
			c0.367,7.239,0.111,14.47-0.254,21.701c-0.103,2.048,0.155,2.177,2.23,2.065c4.42-0.238,8.847-0.406,13.265,0.007
			c3.32,0.311,3.26,0.344,3.944-2.825c0.341-1.576-0.109-1.965-1.684-1.844c-3.336,0.258-6.676,0.555-10.035,0.433
			c-1.54-0.056-2.336-0.715-2.333-2.285c0.003-1.496,0.038-2.995-0.045-4.487c-0.073-1.316,0.444-1.847,1.761-1.819
			c2.633,0.056,5.268-0.005,7.9,0.053c3.38,0.075,3.38,0.105,3.434-3.376c0.001-0.06,0.004-0.12,0.014-0.179
			c0.17-1.027-0.352-1.244-1.242-1.1c-2.317,0.373-4.656,0.245-6.987,0.254c-4.981,0.021-4.981,0.006-4.862-5.06
			c0.055-2.339,0.366-2.704,2.753-2.663c2.988,0.052,5.974,0.262,8.962,0.315c0.742,0.013,1.945,0.548,1.919-1.059
			c-0.043-2.685-0.415-3.36-2.057-3.375C589.994,360.741,587.421,360.757,584.849,360.758z M533.411,360.757
			c-2.571,0-5.143,0.058-7.711-0.025c-1.214-0.039-1.566,0.384-1.461,1.545c0.155,1.724,0.186,3.458,0.275,5.188
			c0.351,6.758-0.064,13.504-0.269,20.255c-0.064,2.122,0.105,2.152,2.218,2.044c4.417-0.225,8.842-0.403,13.256,0.015
			c3.212,0.304,3.207,0.357,3.86-2.678c0.428-1.99,0.389-2.038-1.607-1.955c-3.283,0.136-6.553,0.5-9.849,0.411
			c-1.565-0.042-2.52-0.536-2.526-2.264c-0.005-1.552-0.083-3.103-0.138-4.654c-0.044-1.233,0.579-1.696,1.766-1.678
			c2.691,0.041,5.383-0.012,8.073,0.049c3.286,0.075,3.444-0.053,3.366-3.452c-0.001-0.06-0.006-0.12,0.001-0.179
			c0.1-0.897-0.323-1.15-1.165-1.032c-3.033,0.425-6.088,0.227-9.134,0.26c-2.896,0.032-2.897,0.014-2.909-2.983
			c-0.001-0.179,0-0.359,0-0.538c0.004-4.084,0.476-4.496,4.542-4.214c2.443,0.169,4.895,0.2,7.338,0.368
			c1.41,0.097,2.236-0.183,1.73-1.837c-0.103-0.335-0.077-0.711-0.101-1.069c-0.077-1.155-0.61-1.643-1.843-1.602
			C538.555,360.817,535.982,360.757,533.411,360.757z M331.211,360.757c-2.63,0-5.262,0.041-7.891-0.02
			c-1.084-0.025-1.468,0.272-1.383,1.421c0.184,2.501,0.186,5.014,0.328,7.519c0.34,5.983-0.241,11.945-0.36,17.917
			c-0.045,2.253,0.099,2.294,2.301,2.169c4.297-0.244,8.605-0.381,12.9-0.024c3.577,0.297,3.53,0.365,4.263-3.061
			c0.287-1.343-0.115-1.659-1.428-1.577c-3.398,0.212-6.79,0.535-10.206,0.46c-1.758-0.039-2.508-0.85-2.525-2.506
			c-0.015-1.435,0.068-2.876-0.032-4.305c-0.096-1.376,0.526-1.809,1.786-1.79c2.691,0.04,5.383-0.011,8.073,0.053
			c3.069,0.073,3.068,0.11,3.313-2.972c0.014-0.179,0.006-0.359,0.028-0.537c0.114-0.922-0.211-1.322-1.201-1.16
			c-2.313,0.379-4.652,0.255-6.981,0.264c-5.102,0.018-5.102,0.006-4.992-5.127c0.047-2.194,0.411-2.627,2.657-2.595
			c3.045,0.044,6.088,0.253,9.133,0.315c0.75,0.015,1.884,0.509,1.835-1.121c-0.076-2.505-0.434-3.3-1.905-3.315
			C336.352,360.738,333.781,360.757,331.211,360.757z M284.59,390.315c3.341,0.169,6.535-1.327,9.237-4.053
			c0.775-0.782,0.972-1.413,0.215-2.426c-1.816-2.427-1.753-2.474-4.093-0.577c-4.096,3.32-9.463,2.743-11.988-1.489
			c-2.445-4.096-2.463-8.446-0.308-12.671c1.385-2.715,3.76-4.012,6.886-4.015c2.612-0.002,4.538,1.235,6.293,2.959
			c0.359,0.352,0.655,0.948,1.308,0.722c1.591-0.55,2.399-4.03,1.236-5.246c-4.289-4.486-12.999-4.585-17.642-0.2
			c-5.478,5.174-6.513,14.888-2.251,21.293C275.986,388.374,279.487,390.314,284.59,390.315z M309.916,390.317
			c3.294,0.07,6.469-1.441,9.087-4.276c0.64-0.693,0.691-1.242,0.165-2.039c-1.765-2.669-1.738-2.687-4.184-0.748
			c-5.124,4.061-11.281,2.175-13.202-4.073c-0.829-2.695-0.819-5.429,0.023-8.122c1.294-4.137,4.235-6.186,8.478-5.941
			c2.223,0.128,3.927,1.275,5.431,2.827c0.379,0.391,0.717,1.058,1.463,0.772c1.657-0.635,2.392-3.96,1.165-5.209
			c-4.801-4.884-13.843-4.514-18.513,0.758c-4.234,4.781-5.209,12.715-2.247,18.695C299.979,387.8,303.848,390.343,309.916,390.317z
			 M353.617,360.63c-0.359,0.018-0.838,0.029-1.315,0.068c-3.584,0.291-6.53,2.702-7.268,5.94c-0.92,4.038,0.285,6.848,3.82,8.923
			c1.391,0.816,2.812,1.589,4.154,2.479c1.288,0.855,1.973,2.081,1.661,3.686c-0.294,1.51-1.289,2.377-2.721,2.787
			c-1.444,0.414-2.899,0.634-4.416,0.434c-2.659-0.35-2.658-0.324-2.034,2.178c0.129,0.52,0.237,1.05,0.296,1.582
			c0.101,0.908,0.553,1.404,1.488,1.443c3.498,0.147,6.75-0.493,9.626-2.673c4.1-3.108,4.96-11.228-1.231-13.843
			c-1.583-0.669-3.076-1.598-4.509-2.559c-1.053-0.707-1.496-1.794-1.2-3.14c0.3-1.362,1.209-1.996,2.446-2.319
			c1.211-0.316,2.383-0.019,3.533,0.305c3.389,0.956,3.352,0.955,4.889-2.276c0.383-0.804,0.239-1.142-0.516-1.503
			C358.232,361.143,356.04,360.661,353.617,360.63z M469.389,360.644c-0.119,0.007-0.718,0.018-1.312,0.077
			c-3.481,0.345-6.332,2.771-7.028,5.97c-0.881,4.047,0.272,6.794,3.704,8.805c1.185,0.694,2.392,1.352,3.566,2.066
			c1.986,1.209,2.712,2.526,2.372,4.208c-0.318,1.576-1.739,2.688-3.812,3.044c-1.548,0.266-3.085,0.213-4.636,0.036
			c-0.507-0.058-1.244-0.292-1.162,0.784c0.324,4.238,1.246,4.992,5.487,4.373c0.296-0.043,0.595-0.063,0.89-0.11
			c4.577-0.73,7.887-3.795,8.598-7.959c0.676-3.96-0.844-6.387-5.536-8.902c-1.207-0.647-2.513-1.139-3.538-2.09
			c-0.893-0.829-1.308-1.816-0.998-3.064c0.309-1.246,1.114-1.908,2.31-2.236c1.279-0.351,2.501-0.051,3.707,0.284
			c3.181,0.884,3.095,0.858,4.712-1.996c0.681-1.203,0.183-1.596-0.755-1.984C474.008,361.143,471.995,360.625,469.389,360.644z
			 M213.323,373.139c0-1.616,0.026-4.129-0.012-6.642c-0.016-1.062,0.336-1.495,1.463-1.412c1.668,0.123,3.349,0.071,5.022,0.146
			c0.99,0.044,1.47-0.268,1.281-1.337c-0.083-0.466-0.096-0.961-0.042-1.432c0.158-1.371-0.261-1.907-1.778-1.777
			c-5.008,0.431-10.022,0.584-15.049,0.139c-3.476-0.308-3.426-0.211-4.078,3.218c-0.22,1.155,0.171,1.398,1.156,1.341
			c1.67-0.096,3.35-0.101,5.01-0.287c1.443-0.162,1.82,0.371,1.834,1.772c0.064,6.521,0.066,13.037-0.246,19.554
			c-0.148,3.092-0.035,3.096,2.99,3.166c0.299,0.007,0.609-0.003,0.893,0.072c1.458,0.385,1.838-0.182,1.832-1.634
			C213.578,383.36,213.034,378.707,213.323,373.139z M620.433,377.485c0,3.587,0.033,7.175-0.019,10.761
			c-0.016,1.137,0.308,1.672,1.52,1.571c4.656-0.387,9.309-0.135,13.968,0.057c3.893,0.161,3.617,0.805,3.828-3.908
			c0.045-1.018-0.403-1.243-1.295-1.097c-3.551,0.581-7.151,0.396-10.719,0.67c-1.731,0.133-2.15-0.55-2.117-2.127
			c0.125-6.097-0.127-12.198,0.276-18.294c0.274-4.151,0.197-4.048-3.774-4.333c-1.756-0.126-2.019,0.531-1.925,2.006
			C620.486,367.683,620.659,372.582,620.433,377.485z M598.585,383.188c0,1.936,0.067,3.555-0.023,5.165
			c-0.063,1.111,0.318,1.544,1.415,1.461c4.659-0.353,9.312-0.139,13.974,0.049c3.968,0.16,3.73,0.889,3.905-3.785
			c0.002-0.059,0.014-0.119,0.025-0.178c0.18-0.969-0.377-1.172-1.151-1.043c-3.435,0.572-6.91,0.475-10.369,0.637
			c-2.489,0.117-2.613,0.011-2.616-2.507c-0.008-6.04-0.029-12.079,0.293-18.117c0.209-3.911,0.09-3.777-3.692-4.091
			c-1.922-0.16-2.073,0.654-1.994,2.125C598.725,369.768,599.107,376.633,598.585,383.188z M185.578,367.258
			c0-0.718,0.002-1.435-0.001-2.153c-0.005-1.311,0.46-2.929-0.14-3.857c-0.755-1.168-2.528-0.138-3.83-0.432
			c-1.183-0.267-1.607,0.211-1.547,1.412c0.144,2.865,0.165,5.736,0.302,8.601c0.279,5.804-0.112,11.596-0.276,17.391
			c-0.038,1.332,0.493,1.693,1.681,1.594c4.719-0.393,9.433-0.151,14.151,0.078c3.518,0.171,3.723-0.148,3.655-3.795
			c-0.019-1.04-0.33-1.395-1.365-1.225c-3.611,0.59-7.269,0.431-10.902,0.663c-1.418,0.091-1.817-0.409-1.895-1.784
			C185.097,378.246,185.431,372.754,185.578,367.258z M420.061,385.058c0,1.078,0.01,1.736-0.002,2.392
			c-0.042,2.286-0.035,2.379,2.29,2.126c1.124-0.122,2.652,0.942,3.275-0.339c0.495-1.018,0.19-2.461,0.123-3.709
			c-0.378-7.041-0.4-14.084,0.016-21.12c0.208-3.518,0.306-3.512-3.11-3.57c-0.179-0.003-0.366,0.023-0.536-0.018
			c-1.672-0.403-2.172,0.245-2.091,1.93C420.389,370.324,420.793,377.901,420.061,385.058z M642.096,385.49
			c0,0.538,0.009,1.076-0.002,1.613c-0.052,2.586-0.048,2.666,2.46,2.459c1.058-0.088,2.501,0.939,3.096-0.329
			c0.462-0.985,0.201-2.349,0.134-3.537c-0.402-7.16-0.411-14.319,0.013-21.475c0.197-3.326,0.241-3.323-3.139-3.382
			c-0.179-0.003-0.366,0.023-0.536-0.019c-1.687-0.409-2.158,0.272-2.079,1.94C642.4,370.334,642.81,377.912,642.096,385.49z
			 M229.285,373.976c-0.052,0-0.105-0.001-0.157-0.001c0-3.044,0.034-6.089-0.017-9.133c-0.021-1.246,0.724-2.722-0.049-3.67
			c-0.882-1.08-2.475-0.085-3.737-0.376c-1.393-0.322-1.884,0.248-1.801,1.699c0.469,8.291,0.472,16.584,0.04,24.88
			c-0.121,2.318-0.025,2.318,2.372,2.23c0.416-0.015,0.855-0.05,1.248,0.057c1.931,0.525,2.161-0.463,2.132-2.08
			C229.23,383.047,229.285,378.511,229.285,373.976z"/>
		<path fill="#0B0040" d="M377.52,365.03c5.366-0.01,9.812,5.544,9.059,11.322c-0.326,2.501-1.272,4.706-3.073,6.522
			c-3.568,3.599-8.828,3.471-12.208-0.319c-3.868-4.336-3.682-11.022,0.419-15.125C373.28,365.867,375.293,365.035,377.52,365.03z"
			/>
		<path fill="#0B0040" d="M452.325,374.849c-0.062,3.121-0.93,5.599-2.805,7.701c-3.864,4.332-10.188,3.799-13.463-1.19
			c-2.072-3.157-2.434-6.575-1.118-10.112c1.555-4.175,5.011-6.482,9.071-6.156c3.812,0.306,7.184,3.487,8.018,7.597
			C452.194,373.505,452.257,374.342,452.325,374.849z"/>
		<path fill="#0B0040" d="M400.287,370.634c0-0.52-0.013-0.76,0.002-0.998c0.312-5.17-1.096-4.589,4.925-4.576
			c2.561,0.005,5.094,0.294,6.052,3.355c1.327,4.238-0.612,7.033-5.002,7.154c-0.239,0.007-0.478,0.005-0.717,0.002
			c-1.663-0.02-3.759,0.564-4.861-0.411C399.526,374.132,400.502,371.992,400.287,370.634z"/>
		<path fill="#0B0040" d="M552.369,375.201c0-2.694,0.083-5.391-0.031-8.079c-0.069-1.631,0.649-2.147,2.112-2.101
			c0.897,0.028,1.796,0.002,2.694,0.003c5.944,0.008,9.444,3.034,10.109,8.892c0.334,2.941-0.337,5.706-2.039,8.172
			c-1.534,2.222-3.644,3.399-6.361,3.419c-1.615,0.012-3.233,0.034-4.846-0.031c-1.107-0.044-1.695-0.58-1.661-1.836
			C552.421,380.829,552.369,378.015,552.369,375.201z"/>
		<path fill="#0B0040" d="M255.564,366.765c1.744,3.777,2.999,7.162,4.197,10.568c0.325,0.925-0.158,1.376-1.047,1.391
			c-2.086,0.033-4.173,0.052-6.258,0.016c-0.946-0.016-1.202-0.52-0.851-1.436C252.881,373.98,254.113,370.64,255.564,366.765z"/>
	</g>
</g>
</svg>
